<svg xmlns="http://www.w3.org/2000/svg" xml:space="preserve" fill-rule="evenodd" stroke-linejoin="round" stroke-miterlimit="2" clip-rule="evenodd" viewBox="0 0 64 64">
  <g id="blue">
    <path fill="#61a2d3" d="m42.706 49.246 2.437 2.046c-.361.55-.592 1.202-.592 1.782 0 .379.098.675.268.872l-2.765-2.353c-.069-.879.186-1.738.652-2.347Z"/>
    <path fill="#7ac6ff" d="m45.371 48.557 1.85 1.551-.023.013c-.281-.11-.641-.066-1.036.162-.386.223-.742.586-1.019 1.009l-2.439-2.045c.304-.397.697-.689 1.149-.813.875-.249 1.308-.034 1.457.072.031.023.05.042.061.051Z"/>
    <path fill="#4a6168" d="M42.057 51.63c-.13-1.464.638-2.878 1.796-3.196 1.119-.318 1.516.123 1.516.123L43.7 47.155l-4.134 2.386 2.491 2.089Zm4.105-1.347c.889-.513 1.612-.096 1.612.93 0 1.027-.723 2.278-1.612 2.791-.889.514-1.611.097-1.611-.93 0-1.027.722-2.277 1.611-2.791Zm.008.524c-.641.371-1.162 1.273-1.162 2.014 0 .741.521 1.042 1.162.672.641-.371 1.162-1.273 1.162-2.014 0-.741-.521-1.042-1.162-.672Z"/>
    <path fill="#324565" d="M46.17 50.807c.641-.37 1.162-.069 1.162.672 0 .741-.521 1.643-1.162 2.014-.641.37-1.162.069-1.162-.672 0-.741.521-1.643 1.162-2.014Z"/>
  </g>
  <g id="orange">
    <path fill="#e3704a" d="m47.624 46.406 2.437 2.046c-.36.55-.592 1.202-.592 1.782 0 .379.1.675.268.872l-2.763-2.353c-.069-.879.184-1.738.65-2.347Z"/>
    <path fill="#fca303" d="m50.289 45.717 1.851 1.551-.022.013c-.28-.11-.643-.066-1.036.162-.388.223-.742.586-1.021 1.009l-2.437-2.045c.302-.397.695-.689 1.147-.813.875-.249 1.31-.034 1.457.072a.589.589 0 0 1 .061.051Z"/>
    <path fill="#b26528" d="M46.976 48.79c-.129-1.464.639-2.878 1.795-3.196 1.121-.318 1.518.123 1.518.123l-1.671-1.402-4.131 2.386 2.489 2.089Zm4.106-1.347c.889-.513 1.61-.097 1.61.93 0 1.027-.721 2.278-1.61 2.791-.891.514-1.613.097-1.613-.93 0-1.027.722-2.278 1.613-2.791Zm.006.524c-.641.371-1.162 1.273-1.162 2.014 0 .741.521 1.042 1.162.672.643-.371 1.164-1.273 1.164-2.014 0-.741-.521-1.042-1.164-.672Z"/>
  </g>
  <g id="brown">
    <path fill="#aa7850" d="m54.658 48.267-2.765-2.344c-.071-.882.182-1.745.65-2.357l2.438 2.046c-.362.55-.591 1.202-.591 1.782 0 .38.097.677.268.873Z"/>
    <path fill="#be7a38" d="m54.981 45.612-2.439-2.045c.304-.397.696-.689 1.149-.813.875-.249 1.309-.034 1.458.072.03.023.049.042.06.051l1.851 1.551-.024.013c-.28-.11-.641-.066-1.036.162-.387.223-.742.586-1.019 1.009Z"/>
    <path fill="#66503a" d="M51.896 45.95c-.131-1.464.637-2.878 1.795-3.196 1.119-.319 1.518.123 1.518.123l-1.672-1.402-4.132 2.386 2.491 2.089Z"/>
    <path fill="#8f7148" d="M56 44.603c.889-.513 1.612-.097 1.612.93 0 1.027-.723 2.278-1.612 2.791-.888.514-1.61.097-1.61-.93 0-1.027.722-2.278 1.61-2.791Zm.008.524c-.642.371-1.162 1.273-1.162 2.014 0 .741.52 1.042 1.162.672.641-.371 1.162-1.273 1.162-2.014 0-.741-.521-1.042-1.162-.672Z"/>
    <path fill="#49362f" d="M56.008 45.127c.641-.37 1.162-.069 1.162.672 0 .741-.521 1.643-1.162 2.014-.642.37-1.162.069-1.162-.672 0-.741.52-1.643 1.162-2.014Z"/>
    <path fill="#74352a" d="M51.088 47.967c.643-.37 1.164-.069 1.164.672 0 .741-.521 1.643-1.164 2.014-.641.37-1.162.069-1.162-.672 0-.741.521-1.643 1.162-2.014Z"/>
    <path fill="#c8ab8a" fill-rule="nonzero" d="m9.086 23.162 29.234 24.53 16.824-9.713-29.234-24.53-16.824 9.713Z"/>
    <path fill="#a2886b" fill-rule="nonzero" d="m9.052 23.182 29.235 24.546 1.969-1.137-29.26-24.531-1.944 1.122Zm14.727-8.503 29.234 24.547 2.131-1.231-29.26-24.531-2.105 1.215Z"/>
  </g>
  <g id="grey">
    <path fill="#444" fill-rule="nonzero" d="m9.118 26.115 28.964 24.303 17.062-9.851v-2.588L38.32 47.692 9.086 23.162l.032 2.953Z"/>
  </g>
  <g id="Reversed_Text" enable-background="new    ">
	<path display="inline" fill="#666666" d="M13.572,8.669L11.692,6.17h-0.939v2.499H9.354V1.673h4.697c0.5,0,0.899,0.399,0.899,0.899v2.698
		c0,0.5-0.399,0.899-0.899,0.899h-0.709l1.879,2.499H13.572z M10.753,2.922v1.999h2.799V2.922H10.753z"/>
	<path display="inline" fill="#666666" d="M20.971,6.57h-3.858c0.15,0.64,0.62,1.049,1.349,1.049c0.41,0,0.78-0.13,1.009-0.449h1.41
		c-0.38,0.97-1.31,1.599-2.349,1.599c-1.739,0-2.778-1.199-2.778-2.698s1.1-2.698,2.619-2.698
		C19.981,3.372,21.211,4.602,20.971,6.57z M17.113,5.57h2.519c-0.08-0.649-0.58-1.049-1.199-1.049
		C17.733,4.522,17.263,4.931,17.113,5.57z"/>
	<path display="inline" fill="#666666" d="M25.502,3.472h1.5l-2.199,5.197h-1.399l-2.199-5.197h1.499l1.429,3.559L25.502,3.472z"/>
	<path display="inline" fill="#666666" d="M32.421,6.57h-3.858c0.15,0.64,0.62,1.049,1.349,1.049c0.41,0,0.78-0.13,1.009-0.449h1.41
		c-0.38,0.97-1.31,1.599-2.349,1.599c-1.739,0-2.778-1.199-2.778-2.698s1.1-2.698,2.619-2.698
		C31.432,3.372,32.661,4.602,32.421,6.57z M28.563,5.57h2.519c-0.08-0.649-0.58-1.049-1.199-1.049
		C29.183,4.522,28.713,4.931,28.563,5.57z"/>
	<path display="inline" fill="#666666" d="M33.354,8.669V4.371c0-0.499,0.399-0.899,0.899-0.899h2.398v1.249h-1.898v3.948H33.354z"/>
	<path display="inline" fill="#666666" d="M37.354,8.669V7.47h2.999v-0.8h-2.1c-0.499,0-0.899-0.399-0.899-0.899V4.371c0-0.499,0.4-0.899,0.899-0.899
		h3.398v1.199h-2.898v0.8h2.099c0.5,0,0.899,0.399,0.899,0.899V7.77c0,0.5-0.399,0.899-0.899,0.899H37.354z"/>
	<path display="inline" fill="#666666" d="M47.781,6.57h-3.857c0.149,0.64,0.619,1.049,1.349,1.049c0.41,0,0.78-0.13,1.01-0.449h1.409
		c-0.38,0.97-1.31,1.599-2.349,1.599c-1.739,0-2.778-1.199-2.778-2.698s1.1-2.698,2.618-2.698
		C46.792,3.372,48.021,4.602,47.781,6.57z M43.924,5.57h2.519c-0.08-0.649-0.58-1.049-1.199-1.049
		C44.543,4.522,44.073,4.931,43.924,5.57z"/>
	<path display="inline" fill="#666666" d="M52.562,1.173h1.398v7.496h-1.398v-0.59c-0.42,0.45-1,0.689-1.659,0.689c-1.42,0-2.489-1.089-2.489-2.698
		s1.069-2.698,2.489-2.698c0.659,0,1.239,0.239,1.659,0.689V1.173z M52.562,6.07c0-0.829-0.601-1.449-1.399-1.449
		c-0.77,0-1.35,0.62-1.35,1.449c0,0.83,0.58,1.449,1.35,1.449C51.962,7.52,52.562,6.901,52.562,6.07z"/>
  </g>
</svg>
