<svg xmlns="http://www.w3.org/2000/svg" xml:space="preserve" fill-rule="evenodd" stroke-linejoin="round" stroke-miterlimit="2" clip-rule="evenodd" viewBox="0 0 64 64">
  <g id="grey">
    <path fill="#909090" d="m26.481 45.778 5.481 4.6-11.414 6.415-5.358-4.496 11.291-6.519Z"/>
    <path fill="#575757" d="m31.963 50.378 1.959 1.574-13.47 7.687.096-2.846 11.415-6.415Z"/>
    <path fill="#ababab" d="m20.548 56.793-.096 2.846-5.358-4.496.096-2.846 5.358 4.496Z"/>
    <path fill="#929191" fill-rule="nonzero" d="M.415 22.007 47.92 61.869l15.665-9.044L16.08 12.963.415 22.007Z"/>
    <path fill="#d4d4d4" d="m41.406 37.719 2.545 2.133-.397.23-2.538-2.138.39-.225Zm4.242 3.556 2.545 2.133-.409.237-2.538-2.138.402-.232Zm4.242 3.556 2.545 2.133-.421.243-2.538-2.137.414-.239ZM32.93 30.603l2.545 2.134-.409.236-2.538-2.138.402-.232Zm4.242 3.556 2.545 2.133-.421.243-2.538-2.137.414-.239Zm16.956 14.235 2.546 2.134-.397.229-2.538-2.137.389-.226Zm4.242 3.556 2.546 2.134-.409.236-2.538-2.138.401-.232ZM13.605 14.392l.639.533-.397.23-.631-.538.389-.225Zm2.336 1.956 2.545 2.133-.409.237-2.538-2.138.402-.232Zm4.242 3.556 2.545 2.133-.421.243-2.538-2.137.414-.239Zm4.238 3.563 2.546 2.134-.397.229-2.538-2.137.389-.226Zm4.242 3.556 2.546 2.134-.409.236-2.538-2.138.401-.232ZM38.92 39.154l2.546 2.133-.397.229-2.538-2.137.389-.225Zm4.242 3.555 2.546 2.134-.409.236-2.538-2.137.401-.233Zm4.243 3.557 2.545 2.133-.421.243-2.538-2.137.414-.239ZM30.444 32.038l2.546 2.133-.409.237-2.538-2.138.401-.232Zm4.243 3.556 2.545 2.133-.421.243-2.538-2.137.414-.239Zm16.956 14.235 2.545 2.134-.396.229-2.538-2.138.389-.225Zm4.242 3.556 2.545 2.134-.408.236-2.538-2.138.401-.232ZM11.12 15.827l.639.533-.397.229-.631-.537.389-.225Zm2.336 1.955 2.545 2.134-.409.236-2.538-2.138.402-.232Zm4.242 3.557 2.545 2.133-.421.243-2.538-2.137.414-.239Zm4.238 3.563 2.546 2.134-.397.229-2.538-2.138.389-.225Zm4.242 3.556 2.546 2.134-.409.236-2.538-2.138.401-.232Zm7.603 13.663 2.545 2.133-.396.23-2.538-2.138.389-.225Zm4.242 3.556 2.545 2.134-.408.236-2.538-2.138.401-.232Zm4.242 3.556 2.545 2.133-.421.243-2.537-2.137.413-.239Zm-16.96-14.228 2.545 2.134-.409.236-2.538-2.138.402-.232Zm4.242 3.556 2.545 2.133-.421.244-2.538-2.138.414-.239Zm16.957 14.236 2.545 2.133-.397.229-2.538-2.137.39-.225Zm4.242 3.555 2.545 2.134-.409.236-2.538-2.138.402-.232ZM5.981 18.794l.638.533-.396.23-.632-.538.39-.225Zm2.335 1.956 2.545 2.134-.408.236-2.538-2.138.401-.232Zm4.243 3.556 2.544 2.133-.42.243-2.538-2.137.414-.239Zm4.238 3.564 2.545 2.133-.397.229-2.538-2.137.39-.225Zm4.242 3.555 2.545 2.134-.409.236-2.538-2.138.402-.232Zm10.373 12.064 2.545 2.133-.397.229-2.537-2.137.389-.225Zm4.242 3.556 2.545 2.133-.409.237-2.538-2.138.402-.232Zm4.242 3.556 2.545 2.133-.421.243-2.538-2.137.414-.239Zm-16.96-14.228 2.545 2.134-.409.236-2.538-2.138.402-.232Zm4.242 3.556 2.545 2.133-.421.243-2.538-2.137.414-.239Zm16.956 14.235 2.546 2.134-.397.229-2.538-2.138.389-.225Zm4.242 3.556 2.546 2.134-.409.236-2.538-2.138.401-.232ZM3.612 20.162l.638.533-.396.229-.632-.537.39-.225Zm2.335 1.956 2.545 2.133-.408.237-2.538-2.138.401-.232Zm4.242 3.556 2.545 2.133-.421.243-2.538-2.137.414-.239Zm4.238 3.563 2.546 2.134-.397.229-2.538-2.138.389-.225Zm4.243 3.556 2.545 2.134-.409.236-2.538-2.138.402-.232ZM8.688 17.231l47.505 39.861-.387.224L8.301 17.454l.387-.223Z"/>
  </g>
  <g id="white">
    <path fill="#fff" d="m55.705 51.642 2.253.424-.695.393 1.839 1.507-.692.39-1.827-1.509-.701.392-.177-1.597Zm-4.521 6.924-2.253-.424.694-.392-1.838-1.507.692-.391 1.827 1.509.701-.392.177 1.597Zm6.895-8.265 2.252.424-.694.392 1.839 1.507-.692.391-1.827-1.509-.702.392-.176-1.597Zm-9.269 9.606-2.252-.424.694-.392-1.839-1.507.692-.391 1.827 1.509.702-.392.176 1.597Zm4.619-6.922 2.253.424-.694.392 1.838 1.507-.692.391-1.826-1.509-.702.392-.177-1.597Zm.03 4.238-2.252-.424.694-.392-1.838-1.507.692-.391 1.826 1.509.702-.392.176 1.597Z"/>
  </g>
  <g id="orange">
    <path fill="#b26528" fill-rule="nonzero" d="m.505 23.981 47.321 39.708 15.758-9.099v-1.765l-15.596 9.004L.483 21.968l.022 2.013Z"/>
    <path fill="#f9682b" d="m36.033 1.272 1.664-.961 2.072 1.74-1.663.96-.046 28.396-2.02-1.681-.007-28.454Z"/>
    <path fill="#b26528" d="m39.769 2.051.025 30.865-1.734-1.509.046-28.396 1.663-.96Z"/>
    <path fill="#e75520" d="m4.078 23.799-2.979.68-.684-.573 3.922-1.185 3.692-1.607 3.284-1.911 4.334-2.759 2.996-2.055v1.172l-2.678 1.878-.073 19.383-.612-.512-.018-18.473-3.452 2.134.01 13.434-.612-.512-.02-12.57-2.65 1.494-.189 8.676-.612-.513.182-7.813-3.225 1.284.001 3.975-.613-.512-.004-3.115Z"/>
    <path fill="#e75520" d="m24.547 11.96-7.419 1.937-.684-.574 19.588-9.155V5.34l-3.238 1.867-.089 19.909-.613-.513V7.612l-3.454 1.99-.006 14.097-.612-.513-.003-13.226-2.85 1.643-.006 8.98-.612-.513-.002-8.11Z"/>
    <path fill="#f16822" d="m18.644 11.396 1.797-1.037 2.013 1.689-1.797 1.037-.013-.011-.001 41.355-2-1.587.001-41.446Z"/>
    <path fill="#b26528" d="m22.454 12.048-.001 41.336-1.888 1.09.079-41.381 1.81-1.045Z"/>
    <path fill="#f9682b" d="m36.056 14.674 2.038 1.58-15.641 9.03v-2.747l13.603-7.863Zm0 7.164 2.038 1.58-15.641 9.03v-2.746l13.603-7.864Zm0-19.675 2.038 1.58-15.641 9.03-2.426-1.345 16.029-9.265Zm0 5.675 2.038 1.58-15.641 9.03v-2.746l13.603-7.864Z"/>
    <path fill="#b26528" d="M38.093 16.254v2l-15.64 9.03v-2l15.64-9.03Zm0 7.164v2l-15.64 9.03v-2l15.64-9.03Zm0-19.675v2l-15.64 9.03v-2l15.64-9.03Zm0 5.675v2l-15.64 9.03v-2l15.64-9.03Z"/>
    <path fill="#e75520" d="m54.395 38.263-3.454-6.937.011 10.897-.612-.512-.019-11.644c-.551-1.587-1.622-3.766-2.851-5.935l.011 15.179-.613-.513-.019-15.925-3.035-5.799.013 19.171-.613-.513-.019-19.916-4.116-9.519V3.912l4.625 10.564 3.581 6.919 3.504 7.269 3.944 7.942 3.735 7.486 4.955 8.597-1.95-1.636-3.027-5.125.009 2.592-.612-.513-.017-2.883-2.811-5.602.009 6.119-.612-.513-.017-6.865ZM26.19 26.852l-4.961-10.987V13.48l5.468 12.026 3.847 7.3 3.398 6.851 4.324 8.205 3.413 5.993 5.95 9.669-1.95-1.637-4.095-6.427-.134 2.878-.613-.513.109-3.181-2.937-5.033.01 5.848-.613-.513-.017-6.553-3.454-6.462.011 10.111-.612-.513-.019-10.817-2.85-5.747.01 14.164-.612-.513-.017-14.869-3.036-5.676.011 17.992-.612-.513-.019-18.698Z"/>
  </g>
  <g id="Reversed_Text" enable-background="new    ">
	<path display="inline" fill="#666666" d="M13.572,8.669L11.692,6.17h-0.939v2.499H9.354V1.673h4.697c0.5,0,0.899,0.399,0.899,0.899v2.698
		c0,0.5-0.399,0.899-0.899,0.899h-0.709l1.879,2.499H13.572z M10.753,2.922v1.999h2.799V2.922H10.753z"/>
	<path display="inline" fill="#666666" d="M20.971,6.57h-3.858c0.15,0.64,0.62,1.049,1.349,1.049c0.41,0,0.78-0.13,1.009-0.449h1.41
		c-0.38,0.97-1.31,1.599-2.349,1.599c-1.739,0-2.778-1.199-2.778-2.698s1.1-2.698,2.619-2.698
		C19.981,3.372,21.211,4.602,20.971,6.57z M17.113,5.57h2.519c-0.08-0.649-0.58-1.049-1.199-1.049
		C17.733,4.522,17.263,4.931,17.113,5.57z"/>
	<path display="inline" fill="#666666" d="M25.502,3.472h1.5l-2.199,5.197h-1.399l-2.199-5.197h1.499l1.429,3.559L25.502,3.472z"/>
	<path display="inline" fill="#666666" d="M32.421,6.57h-3.858c0.15,0.64,0.62,1.049,1.349,1.049c0.41,0,0.78-0.13,1.009-0.449h1.41
		c-0.38,0.97-1.31,1.599-2.349,1.599c-1.739,0-2.778-1.199-2.778-2.698s1.1-2.698,2.619-2.698
		C31.432,3.372,32.661,4.602,32.421,6.57z M28.563,5.57h2.519c-0.08-0.649-0.58-1.049-1.199-1.049
		C29.183,4.522,28.713,4.931,28.563,5.57z"/>
	<path display="inline" fill="#666666" d="M33.354,8.669V4.371c0-0.499,0.399-0.899,0.899-0.899h2.398v1.249h-1.898v3.948H33.354z"/>
	<path display="inline" fill="#666666" d="M37.354,8.669V7.47h2.999v-0.8h-2.1c-0.499,0-0.899-0.399-0.899-0.899V4.371c0-0.499,0.4-0.899,0.899-0.899
		h3.398v1.199h-2.898v0.8h2.099c0.5,0,0.899,0.399,0.899,0.899V7.77c0,0.5-0.399,0.899-0.899,0.899H37.354z"/>
	<path display="inline" fill="#666666" d="M47.781,6.57h-3.857c0.149,0.64,0.619,1.049,1.349,1.049c0.41,0,0.78-0.13,1.01-0.449h1.409
		c-0.38,0.97-1.31,1.599-2.349,1.599c-1.739,0-2.778-1.199-2.778-2.698s1.1-2.698,2.618-2.698
		C46.792,3.372,48.021,4.602,47.781,6.57z M43.924,5.57h2.519c-0.08-0.649-0.58-1.049-1.199-1.049
		C44.543,4.522,44.073,4.931,43.924,5.57z"/>
	<path display="inline" fill="#666666" d="M52.562,1.173h1.398v7.496h-1.398v-0.59c-0.42,0.45-1,0.689-1.659,0.689c-1.42,0-2.489-1.089-2.489-2.698
		s1.069-2.698,2.489-2.698c0.659,0,1.239,0.239,1.659,0.689V1.173z M52.562,6.07c0-0.829-0.601-1.449-1.399-1.449
		c-0.77,0-1.35,0.62-1.35,1.449c0,0.83,0.58,1.449,1.35,1.449C51.962,7.52,52.562,6.901,52.562,6.07z"/>
  </g>
</svg>
