<svg xmlns="http://www.w3.org/2000/svg" xml:space="preserve" fill-rule="evenodd" stroke-linejoin="round" stroke-miterlimit="2" clip-rule="evenodd" viewBox="0 0 64 64">
  <g id="grey">
    <path fill="#909090" d="m41.387 57.599 16.576-9.586 1.754 1.472-19.348 11.086-5.358-4.496 4.453-2.571.005 2.486 1.918 1.609ZM9.722 31.03l8.643-4.916 1.754 1.472-11.415 6.415-5.358-4.496 4.453-2.571.005 2.486 1.918 1.61Z"/>
    <path fill="#575757" d="m59.718 49.484-.02 2.425-19.425 11.507.096-2.845 19.349-11.087ZM20.119 27.585l1.959 1.575-13.47 7.686.096-2.845 11.415-6.416Z"/>
    <path fill="#ababab" d="m40.369 60.571-.096 2.845-5.358-4.496.096-2.845 5.358 4.496ZM8.704 34.001l-.096 2.845-5.358-4.495.096-2.846 5.358 4.496Z"/>
    <path fill="#444" fill-rule="nonzero" d="m6.996 16.573 43.597 36.583 8.678-5.01v-1.765l-8.516 4.916L8.061 15.472l-1.065 1.101Z"/>
    <path fill="#929191" fill-rule="nonzero" d="m52.498 44.509.054 5.751 6.683-3.858.016-2.132-2.566-2.155-4.187 2.394Z"/>
    <path fill="#d4d4d4" d="m49.582 42.683 3.741 3.136-.601.347-3.73-3.142.59-.341Zm6.235 5.226.331.275-.619.357-.32-.281.608-.351Z"/>
    <path fill="#c2bdbd" d="m39.464 44.947.797-.461 2.013 1.689-.797.461-.013-.011v11.004l-1.995-1.639-.005-11.043ZM7.799 18.377l.797-.46 2.013 1.689-.797.46-.013-.011v11.004L7.804 29.42l-.005-11.043Z"/>
    <path fill="#707070" d="m42.274 46.175 3.567 2.994.639 1.536 2.852 2.394-7.946 4.575.078-11.031.81-.468ZM10.609 19.606l7.756 6.508-8.643 4.99.077-11.031.81-.467Z"/>
    <path fill="#444" d="m59.278 40.622-.027 3.648-2.566-2.155 2.593-1.493Z"/>
    <path fill="#d4d4d4" d="m50.597 45.382.045 8.815-4.162-3.492-1.851-4.452L8.171 15.661l-1.795 1.393-1.277-1.072-.066-8.825 45.564 38.225Z"/>
    <path fill="#ababab" d="m55.841 40.096 4.908-1.218v9.414l-1.535.887.057-8.557-6.725 3.883.009 8.518-1.913 1.175-.121-9.915 5.32-4.187Z"/>
    <path fill="#575757" d="m55.781 40.143-5.26 4.169L5.026 6.128l5.094-4.397.019.017L15.111.584l45.638 38.294-4.968 1.265Z"/>
    <path fill="#909090" d="M10.799 13.153v1.483l-3-2.517v-1.483l3 2.517Zm28.502 23.916v1.483l-3-2.518v-1.482l3 2.517ZM18.885 19.938v1.483l-3-2.517v-1.483l3 2.517Zm28.502 23.916v1.483l-3-2.518v-1.482l3 2.517Zm3.134.429v1.035L5.033 7.157V6.122l45.488 38.161Z"/>
    <path fill="#2e2e2e" d="M43.521 38.409v1.035l-.793-.665v-1.036l.793.666Zm-7.185-6.029v1.035l-.793-.665v-1.035l.793.665Zm-15.67-13.149v1.035l-.793-.665v-1.035l.793.665Zm-6.596-5.534v1.035l-.793-.665v-1.036l.793.666ZM7.323 8.035v1.036l-.793-.666V7.37l.793.665Zm20.883 17.523v1.035l-.793-.665v-1.035l.793.665Z"/>
  </g>
  <g id="white">
    <path fill="#fff" d="m54.387 43.429-1.112.649 1.742 1.464 1.131-.652-1.761-1.461Z"/>
  </g>
  <g id="Reversed_Text" enable-background="new    ">
	<path display="inline" fill="#666666" d="M13.572,8.669L11.692,6.17h-0.939v2.499H9.354V1.673h4.697c0.5,0,0.899,0.399,0.899,0.899v2.698
		c0,0.5-0.399,0.899-0.899,0.899h-0.709l1.879,2.499H13.572z M10.753,2.922v1.999h2.799V2.922H10.753z"/>
	<path display="inline" fill="#666666" d="M20.971,6.57h-3.858c0.15,0.64,0.62,1.049,1.349,1.049c0.41,0,0.78-0.13,1.009-0.449h1.41
		c-0.38,0.97-1.31,1.599-2.349,1.599c-1.739,0-2.778-1.199-2.778-2.698s1.1-2.698,2.619-2.698
		C19.981,3.372,21.211,4.602,20.971,6.57z M17.113,5.57h2.519c-0.08-0.649-0.58-1.049-1.199-1.049
		C17.733,4.522,17.263,4.931,17.113,5.57z"/>
	<path display="inline" fill="#666666" d="M25.502,3.472h1.5l-2.199,5.197h-1.399l-2.199-5.197h1.499l1.429,3.559L25.502,3.472z"/>
	<path display="inline" fill="#666666" d="M32.421,6.57h-3.858c0.15,0.64,0.62,1.049,1.349,1.049c0.41,0,0.78-0.13,1.009-0.449h1.41
		c-0.38,0.97-1.31,1.599-2.349,1.599c-1.739,0-2.778-1.199-2.778-2.698s1.1-2.698,2.619-2.698
		C31.432,3.372,32.661,4.602,32.421,6.57z M28.563,5.57h2.519c-0.08-0.649-0.58-1.049-1.199-1.049
		C29.183,4.522,28.713,4.931,28.563,5.57z"/>
	<path display="inline" fill="#666666" d="M33.354,8.669V4.371c0-0.499,0.399-0.899,0.899-0.899h2.398v1.249h-1.898v3.948H33.354z"/>
	<path display="inline" fill="#666666" d="M37.354,8.669V7.47h2.999v-0.8h-2.1c-0.499,0-0.899-0.399-0.899-0.899V4.371c0-0.499,0.4-0.899,0.899-0.899
		h3.398v1.199h-2.898v0.8h2.099c0.5,0,0.899,0.399,0.899,0.899V7.77c0,0.5-0.399,0.899-0.899,0.899H37.354z"/>
	<path display="inline" fill="#666666" d="M47.781,6.57h-3.857c0.149,0.64,0.619,1.049,1.349,1.049c0.41,0,0.78-0.13,1.01-0.449h1.409
		c-0.38,0.97-1.31,1.599-2.349,1.599c-1.739,0-2.778-1.199-2.778-2.698s1.1-2.698,2.618-2.698
		C46.792,3.372,48.021,4.602,47.781,6.57z M43.924,5.57h2.519c-0.08-0.649-0.58-1.049-1.199-1.049
		C44.543,4.522,44.073,4.931,43.924,5.57z"/>
	<path display="inline" fill="#666666" d="M52.562,1.173h1.398v7.496h-1.398v-0.59c-0.42,0.45-1,0.689-1.659,0.689c-1.42,0-2.489-1.089-2.489-2.698
		s1.069-2.698,2.489-2.698c0.659,0,1.239,0.239,1.659,0.689V1.173z M52.562,6.07c0-0.829-0.601-1.449-1.399-1.449
		c-0.77,0-1.35,0.62-1.35,1.449c0,0.83,0.58,1.449,1.35,1.449C51.962,7.52,52.562,6.901,52.562,6.07z"/>
  </g>
</svg>
