<svg xmlns="http://www.w3.org/2000/svg" xml:space="preserve" fill-rule="evenodd" stroke-linejoin="round" stroke-miterlimit="2" clip-rule="evenodd" viewBox="0 0 64 64">
  <g id="blue">
    <path fill="#61a2d3" d="M42.563 49.329 45 51.375c-.361.55-.592 1.202-.592 1.782 0 .379.098.675.268.872l-2.765-2.353c-.069-.879.186-1.738.652-2.347Z"/>
    <path fill="#7ac6ff" d="m45.228 48.64 1.85 1.551-.023.013c-.281-.11-.641-.066-1.036.162-.386.223-.742.586-1.019 1.009l-2.439-2.045c.304-.397.697-.689 1.149-.813.875-.249 1.308-.034 1.457.072.031.023.05.042.061.051Z"/>
    <path fill="#4a6168" d="M41.914 51.713c-.13-1.464.638-2.878 1.796-3.196 1.119-.318 1.516.123 1.516.123l-1.669-1.402-4.134 2.386 2.491 2.089Zm4.105-1.347c.889-.513 1.612-.096 1.612.93 0 1.027-.723 2.278-1.612 2.791-.889.514-1.611.097-1.611-.93 0-1.027.722-2.277 1.611-2.791Zm.008.524c-.641.371-1.162 1.273-1.162 2.014 0 .741.521 1.042 1.162.672.641-.371 1.162-1.273 1.162-2.014 0-.741-.521-1.042-1.162-.672Z"/>
    <path fill="#324565" d="M46.027 50.89c.641-.37 1.162-.069 1.162.672 0 .741-.521 1.643-1.162 2.014-.641.37-1.162.069-1.162-.672 0-.741.521-1.643 1.162-2.014Z"/>
  </g>
  <g id="brown">
    <path fill="#aa7850" d="m54.515 48.35-2.765-2.344c-.071-.882.182-1.745.65-2.357l2.438 2.046c-.362.55-.591 1.202-.591 1.782 0 .38.097.677.268.873Z"/>
    <path fill="#be7a38" d="m54.838 45.695-2.439-2.045c.304-.397.696-.689 1.149-.813.875-.249 1.309-.034 1.458.072.03.023.049.042.06.051l1.851 1.551-.024.013c-.28-.11-.641-.066-1.036.162-.387.223-.742.586-1.019 1.009Z"/>
    <path fill="#66503a" d="M51.753 46.033c-.131-1.464.637-2.878 1.795-3.196 1.119-.319 1.518.123 1.518.123l-1.672-1.402-4.132 2.386 2.491 2.089Z"/>
    <path fill="#8f7148" d="M55.857 44.686c.889-.513 1.612-.097 1.612.93 0 1.027-.723 2.278-1.612 2.791-.888.514-1.61.097-1.61-.93 0-1.027.722-2.278 1.61-2.791Zm.008.524c-.642.371-1.162 1.273-1.162 2.014 0 .741.52 1.042 1.162.672.641-.371 1.162-1.273 1.162-2.014 0-.741-.521-1.042-1.162-.672Z"/>
    <path fill="#49362f" d="M55.865 45.21c.641-.37 1.162-.069 1.162.672 0 .741-.521 1.643-1.162 2.014-.642.37-1.162.069-1.162-.672 0-.741.52-1.643 1.162-2.014Z"/>
    <path fill="#74352a" d="M50.945 48.05c.643-.37 1.164-.069 1.164.672 0 .741-.521 1.643-1.164 2.014-.641.37-1.162.069-1.162-.672 0-.741.521-1.643 1.162-2.014Z"/>
  </g>
  <g id="orange">
    <path fill="#e3704a" d="m47.481 46.489 2.437 2.046c-.36.55-.592 1.202-.592 1.782 0 .379.1.675.268.872l-2.763-2.353c-.069-.879.184-1.738.65-2.347Z"/>
    <path fill="#fca303" d="m50.146 45.8 1.851 1.551-.022.013c-.28-.11-.643-.066-1.036.162-.388.223-.742.586-1.021 1.009l-2.437-2.045c.302-.397.695-.689 1.147-.813.875-.249 1.31-.034 1.457.072a.589.589 0 0 1 .061.051Z"/>
    <path fill="#b26528" d="M46.833 48.873c-.129-1.464.639-2.878 1.795-3.196 1.121-.318 1.518.123 1.518.123l-1.671-1.402-4.131 2.386 2.489 2.089Zm4.106-1.347c.889-.513 1.61-.097 1.61.93 0 1.027-.721 2.278-1.61 2.791-.891.514-1.613.097-1.613-.93 0-1.027.722-2.278 1.613-2.791Zm.006.524c-.641.371-1.162 1.273-1.162 2.014 0 .741.521 1.042 1.162.672.643-.371 1.164-1.273 1.164-2.014 0-.741-.521-1.042-1.164-.672Z"/>
  </g>
  <g id="grey">
    <path fill="#444" fill-rule="nonzero" d="m.89 30.865 28.964 24.304L63.142 35.95v-2.588l-33.05 19.081L.858 27.913l.032 2.952Z"/>
    <path fill="#929191" fill-rule="nonzero" d="m.858 27.913 29.234 24.53 33.05-19.081L33.908 8.831.858 27.913Z"/>
    <path fill="#d4d4d4" d="m4.273 25.998-.04-.034.54-.311.038.032-.538.313Zm3.996-2.332-.022-.019.54-.312.02.017-.538.314Zm6.458-1.068 3.536 2.965-.55.321-3.529-2.971.543-.315Zm5.435 4.557 3.586 3.006-.564.329-3.578-3.013.556-.322Zm5.484 4.598 3.68 3.086-.576.336-3.673-3.092.569-.33Zm5.579 4.678 3.609 3.026-.59.344-3.602-3.032.583-.338Zm5.508 4.618 3.423 2.87-.603.352-3.417-2.877.597-.345Zm1.289 6.799.012.01-.594.343-.011-.009.593-.344Zm-4.009 2.323.006.005-.585.338-.005-.004.584-.339Zm-2.455-1.234-3.443-2.895.576-.333 3.447 2.89-.58.338Zm-5.314-4.467-3.628-3.051.568-.328 3.632 3.045-.572.334Zm-5.498-4.624-3.699-3.109.558-.324 3.703 3.105-.562.328Zm-5.57-4.682-3.605-3.031.55-.318 3.609 3.025-.554.324ZM9.7 30.56l-3.555-2.989.541-.314 3.56 2.985-.546.318Zm.995-5.626 3.548 2.975-.548.32-3.543-2.98.543-.315Zm5.435 4.558 3.597 3.016-.558.325-3.592-3.021.553-.32Zm5.484 4.598 3.691 3.095-.568.332-3.686-3.101.563-.326Zm5.578 4.678 3.621 3.035-.578.338-3.616-3.041.573-.332Zm5.508 4.618 3.435 2.88-.588.343-3.43-2.885.583-.338ZM21.62 15.982l-.04-.034.54-.311.038.032-.538.313Zm4.085-2.384-.022-.018.539-.312.02.017-.537.313Zm4-2.334-.004-.004.54-.312.002.002-.538.314Zm2.438 1.278 3.535 2.965-.547.319-3.531-2.969.543-.315Zm5.435 4.558 3.584 3.006-.556.324-3.58-3.01.552-.32Zm5.484 4.598 3.679 3.085-.565.33-3.675-3.09.561-.325Zm5.578 4.678 3.608 3.025-.574.336-3.604-3.031.57-.33Zm5.507 4.618 3.423 2.87-.583.34-3.419-2.875.579-.335Zm5.323 4.462.017.015-.589.34-.017-.014.589-.341Zm-4.013 2.325.012.01-.562.325-.011-.009.561-.326Zm-4.096 2.374.006.005-.589.34-.005-.004.588-.341Zm-2.459-1.232-3.442-2.895.579-.335 3.446 2.889-.583.341Zm-5.313-4.468-3.627-3.05.569-.33 3.632 3.045-.574.335Zm-5.498-4.623-3.699-3.11.561-.325 3.703 3.105-.565.33Zm-5.569-4.683-3.604-3.031.551-.319 3.608 3.025-.555.325Zm-5.475-4.604-3.555-2.989.542-.314 3.559 2.984-.546.319Zm1.083-5.677 3.547 2.974-.541.316-3.546-2.977.54-.313Zm5.435 4.557 3.597 3.016-.546.318-3.595-3.018.544-.316Zm5.484 4.598 3.691 3.095-.55.321-3.69-3.098.549-.318Zm5.579 4.678 3.62 3.035-.555.324-3.618-3.039.553-.32Zm5.507 4.618 3.435 2.88-.559.325-3.433-2.882.557-.323Z"/>
    <path fill="#575757" fill-rule="nonzero" d="m16.122 19.1 29.301 24.522 2.019-1.196-29.239-24.514-2.081 1.188Z"/>
  </g>
  <g id="white" fill="#fff" fill-rule="nonzero">
    <path d="m26.982 36.162-.274-2.537-1.091.622-2.84-2.396-1.076.621 2.858 2.393-1.079.623 3.502.674Zm-4.014 2.318-.275-2.537-1.091.622-2.84-2.397-1.076.622 2.859 2.393-1.079.623 3.502.674Zm-4.039 2.332-.275-2.537-1.09.622-2.84-2.397-1.076.621 2.858 2.394-1.079.623 3.502.674Zm12.037-6.949-.275-2.538-1.091.623-2.84-2.397-1.076.621 2.859 2.394-1.08.623 3.503.674Zm4.685-9.446.274 2.538 1.091-.623 2.84 2.397 1.076-.621-2.858-2.394 1.079-.623-3.502-.674Zm-4.102 2.369.274 2.537 1.091-.622 2.84 2.397 1.076-.622-2.859-2.393 1.08-.623-3.502-.674Zm8.12-4.688.274 2.537 1.091-.622 2.84 2.396 1.076-.621-2.858-2.393 1.079-.623-3.502-.674Zm4.227-2.441.275 2.537 1.091-.622 2.839 2.397 1.076-.621-2.858-2.394 1.079-.623-3.502-.674Z"/>
  </g>
  <g id="Reversed_Text" enable-background="new    ">
	<path display="inline" fill="#666666" d="M13.572,8.669L11.692,6.17h-0.939v2.499H9.354V1.673h4.697c0.5,0,0.899,0.399,0.899,0.899v2.698
		c0,0.5-0.399,0.899-0.899,0.899h-0.709l1.879,2.499H13.572z M10.753,2.922v1.999h2.799V2.922H10.753z"/>
	<path display="inline" fill="#666666" d="M20.971,6.57h-3.858c0.15,0.64,0.62,1.049,1.349,1.049c0.41,0,0.78-0.13,1.009-0.449h1.41
		c-0.38,0.97-1.31,1.599-2.349,1.599c-1.739,0-2.778-1.199-2.778-2.698s1.1-2.698,2.619-2.698
		C19.981,3.372,21.211,4.602,20.971,6.57z M17.113,5.57h2.519c-0.08-0.649-0.58-1.049-1.199-1.049
		C17.733,4.522,17.263,4.931,17.113,5.57z"/>
	<path display="inline" fill="#666666" d="M25.502,3.472h1.5l-2.199,5.197h-1.399l-2.199-5.197h1.499l1.429,3.559L25.502,3.472z"/>
	<path display="inline" fill="#666666" d="M32.421,6.57h-3.858c0.15,0.64,0.62,1.049,1.349,1.049c0.41,0,0.78-0.13,1.009-0.449h1.41
		c-0.38,0.97-1.31,1.599-2.349,1.599c-1.739,0-2.778-1.199-2.778-2.698s1.1-2.698,2.619-2.698
		C31.432,3.372,32.661,4.602,32.421,6.57z M28.563,5.57h2.519c-0.08-0.649-0.58-1.049-1.199-1.049
		C29.183,4.522,28.713,4.931,28.563,5.57z"/>
	<path display="inline" fill="#666666" d="M33.354,8.669V4.371c0-0.499,0.399-0.899,0.899-0.899h2.398v1.249h-1.898v3.948H33.354z"/>
	<path display="inline" fill="#666666" d="M37.354,8.669V7.47h2.999v-0.8h-2.1c-0.499,0-0.899-0.399-0.899-0.899V4.371c0-0.499,0.4-0.899,0.899-0.899
		h3.398v1.199h-2.898v0.8h2.099c0.5,0,0.899,0.399,0.899,0.899V7.77c0,0.5-0.399,0.899-0.899,0.899H37.354z"/>
	<path display="inline" fill="#666666" d="M47.781,6.57h-3.857c0.149,0.64,0.619,1.049,1.349,1.049c0.41,0,0.78-0.13,1.01-0.449h1.409
		c-0.38,0.97-1.31,1.599-2.349,1.599c-1.739,0-2.778-1.199-2.778-2.698s1.1-2.698,2.618-2.698
		C46.792,3.372,48.021,4.602,47.781,6.57z M43.924,5.57h2.519c-0.08-0.649-0.58-1.049-1.199-1.049
		C44.543,4.522,44.073,4.931,43.924,5.57z"/>
	<path display="inline" fill="#666666" d="M52.562,1.173h1.398v7.496h-1.398v-0.59c-0.42,0.45-1,0.689-1.659,0.689c-1.42,0-2.489-1.089-2.489-2.698
		s1.069-2.698,2.489-2.698c0.659,0,1.239,0.239,1.659,0.689V1.173z M52.562,6.07c0-0.829-0.601-1.449-1.399-1.449
		c-0.77,0-1.35,0.62-1.35,1.449c0,0.83,0.58,1.449,1.35,1.449C51.962,7.52,52.562,6.901,52.562,6.07z"/>
  </g>
</svg>
