<svg xmlns="http://www.w3.org/2000/svg" xml:space="preserve" fill-rule="evenodd" stroke-linejoin="round" stroke-miterlimit="2" clip-rule="evenodd" viewBox="0 0 64 64">
  <g id="grey">
    <path fill="#909090" d="m3.229 26.522 4.453-2.571.005 2.486 2.918 2.449v.074l.077-.045 8.566-4.945 1.754 1.471-11.415 6.416-6.358-5.335Z"/>
    <path fill="#575757" d="m21.002 25.441 1.959 1.575-13.47 7.686.096-2.845 11.415-6.416Z"/>
    <path fill="#ababab" d="m9.491 34.702-6.358-5.334.096-2.846 6.358 5.335-.096 2.845Z"/>
    <path fill="#c2bdbd" d="m7.687 26.437-.005-11.043.797-.46 3.013 2.528-.797.46-.013-.011v.018l-.077 10.923-2.918-2.415Z"/>
    <path fill="#707070" d="m10.682 17.929.013-.007.797-.46 7.756 6.508-8.566 4.945-.077.045v-.074l.077-10.957Z"/>
    <path fill="#2e2e2e" d="M38.855 44.776c-2.685-3.144-6.616-7.507-10.077-10.411-6.89-5.782-13.023-9.191-14.496-8.1 0-1.181 1.083-1.363 2.91-.706V22.6l.5.419v2.643l2.024-.944.423.354-1.935.902c.915.416 1.962.988 3.114 1.705v-1.617l.5.419v1.514l.011.007 1.158-.54.422.355-1.086.506a59.461 59.461 0 0 1 2.674 1.877v-1.051l.5.419v.93l.712-.332.422.354-.747.349a82.77 82.77 0 0 1 2.702 2.163v-.872l.5.42v.874a54.59 54.59 0 0 1 2.351 2.15l-.806-1.728.906.761.673 1.442v-.878l.5.42v1.243c.925.936 1.839 1.903 2.712 2.855l-1.396-2.994.907.761 1.17 2.51v-1.528l.5.42v2.136c.812.909 1.572 1.784 2.252 2.58v1.172Zm0-1.732-1.737-3.724.906.761.83 1.779.001 1.184Zm-21.86-20.61-2.618 1.221-.211-.453 2.401-1.12c-1.076-.365-1.868-.417-2.285-.108 0-.639.317-.985.896-1.064l1.817 1.524Z"/>
    <path fill="#909090" d="m34.401 52.679 4.453-2.571.005 2.486 3.143 2.548-.001.075.078-.044 8.635-4.888-.127-.107 7.991-4.622 1.755 1.472-19.349 11.086-6.583-5.435Z"/>
    <path fill="#575757" d="m60.333 47.028-.02 2.424-19.425 11.507.096-2.845 19.349-11.086Z"/>
    <path fill="#ababab" d="m40.888 60.959-6.583-5.435.096-2.845 6.583 5.435-.096 2.845Z"/>
    <path fill="#c2bdbd" d="m38.859 52.594-.005-11.043.797-.461 3.238 2.628-.797.461-.013-.011v.018l-.077 10.923-3.143-2.515Z"/>
    <path fill="#707070" d="m42.002 55.142.077-10.956.013-.007.797-.461 3.567 2.994 4.258 3.573-8.635 4.888-.078.044.001-.075Z"/>
    <path fill="#444" d="M11.702 22.818c.497-.186 1.286-.081 2.309.287v-3.238l.5.483v2.948c1.058.435 2.325 1.111 3.748 2.003v-1.806l.5.388v1.736c1.997 1.289 4.274 2.977 6.693 4.999v-1.087l.5.334v1.111l.051.108c2.294 1.978 4.762 4.54 6.919 6.929v-2.214l.5.419v2.352a158.211 158.211 0 0 1 3.635 4.221V39l.5.688v3.707a108.05 108.05 0 0 1 1.341 1.655v1.172s-.498-.632-1.341-1.655v3.119a108.05 108.05 0 0 1 1.341 1.655v1.171s-7.346-9.315-13.301-14.311c-6.179-5.185-11.748-8.462-13.895-8.296v-.796c.497-.186 1.286-.081 2.309.287v-3.217l-2.309 1.077v-.551l1.685-.786c-.684-.232-1.254-.338-1.685-.305v-.796Zm21.22 16.367a116.442 116.442 0 0 0-2.475-2.661l2.475 5.308v-2.647Zm-3.892-4.104a64.022 64.022 0 0 0-2.37-2.247l2.37 5.082v-2.835Zm7.222 11.04-2.83-6.069v2.809a155.647 155.647 0 0 1 2.83 3.26ZM22.703 32.706a82.77 82.77 0 0 1 2.702 2.163V31.75l-.235-.195-2.467 1.151Zm-1.346-4.13a59.769 59.769 0 0 0-2.719-1.884v3.14l.01.007 2.709-1.263Zm-3.23-2.212-3.105 1.447c.915.415 1.963.988 3.116 1.705v-3.145l-.011-.007Zm18.93 17.599a164.73 164.73 0 0 0-2.775-3.25l2.775 5.951v-2.701Zm-4.815-2.407L29.53 35.74v2.962c.925.935 1.838 1.902 2.712 2.854Zm-3.985-4.113-2.352-5.045v2.893c.77.66 1.56 1.387 2.352 2.152Zm-9.115-7.283a58.719 58.719 0 0 1 2.675 1.878v-3.123l-.002-.001-2.673 1.246Zm5.6 1.043a82.27 82.27 0 0 0-2.425-1.912v3.043l2.425-1.131Zm-10.231-6.837v3.132l3.109-1.45c-1.149-.706-2.197-1.273-3.109-1.682Z"/>
    <path fill="#444" d="m3.39 11.018 47.321 39.708 10.156-5.864v-1.765l-9.994 5.77L3.368 9.005l.022 2.013Z"/>
    <path fill="#929191" d="m3.3 9.045 47.505 39.861 10.062-5.809L13.363 3.235 3.3 9.045Z"/>
    <path fill="#d4d4d4" d="m24.769 19.339 3.741 3.135-.583.337-3.73-3.142.572-.33Zm6.234 5.225 3.741 3.136-.601.347-3.73-3.142.59-.341Zm6.235 5.226 3.74 3.135-.619.357-3.73-3.141.609-.351ZM8.751 5.898l1.068.892-.583.337-1.058-.899.573-.33Zm3.561 2.983 3.741 3.135-.601.348-3.73-3.142.59-.341Zm6.235 5.226 3.74 3.135-.618.357-3.73-3.141.608-.351Zm24.919 20.92 3.741 3.135-.583.337-3.73-3.141.572-.331Zm6.234 5.226 3.741 3.135-.601.348-3.73-3.142.59-.341Zm6.235 5.226.331.274-.619.358-.321-.281.609-.351Z"/>
  </g>
  <g id="white">
    <path fill="#fff" d="m50.715 38.58 3.681.708-1.134.655 3.004 2.516-1.131.653-2.985-2.519-1.146.654-.289-2.667Zm.617 6.728-3.681-.708 1.135-.656-3.005-2.516 1.131-.652 2.985 2.519 1.147-.654.288 2.667Z"/>
  </g>
  <g id="Reversed_Text" enable-background="new    ">
	<path display="inline" fill="#666666" d="M13.572,8.669L11.692,6.17h-0.939v2.499H9.354V1.673h4.697c0.5,0,0.899,0.399,0.899,0.899v2.698
		c0,0.5-0.399,0.899-0.899,0.899h-0.709l1.879,2.499H13.572z M10.753,2.922v1.999h2.799V2.922H10.753z"/>
	<path display="inline" fill="#666666" d="M20.971,6.57h-3.858c0.15,0.64,0.62,1.049,1.349,1.049c0.41,0,0.78-0.13,1.009-0.449h1.41
		c-0.38,0.97-1.31,1.599-2.349,1.599c-1.739,0-2.778-1.199-2.778-2.698s1.1-2.698,2.619-2.698
		C19.981,3.372,21.211,4.602,20.971,6.57z M17.113,5.57h2.519c-0.08-0.649-0.58-1.049-1.199-1.049
		C17.733,4.522,17.263,4.931,17.113,5.57z"/>
	<path display="inline" fill="#666666" d="M25.502,3.472h1.5l-2.199,5.197h-1.399l-2.199-5.197h1.499l1.429,3.559L25.502,3.472z"/>
	<path display="inline" fill="#666666" d="M32.421,6.57h-3.858c0.15,0.64,0.62,1.049,1.349,1.049c0.41,0,0.78-0.13,1.009-0.449h1.41
		c-0.38,0.97-1.31,1.599-2.349,1.599c-1.739,0-2.778-1.199-2.778-2.698s1.1-2.698,2.619-2.698
		C31.432,3.372,32.661,4.602,32.421,6.57z M28.563,5.57h2.519c-0.08-0.649-0.58-1.049-1.199-1.049
		C29.183,4.522,28.713,4.931,28.563,5.57z"/>
	<path display="inline" fill="#666666" d="M33.354,8.669V4.371c0-0.499,0.399-0.899,0.899-0.899h2.398v1.249h-1.898v3.948H33.354z"/>
	<path display="inline" fill="#666666" d="M37.354,8.669V7.47h2.999v-0.8h-2.1c-0.499,0-0.899-0.399-0.899-0.899V4.371c0-0.499,0.4-0.899,0.899-0.899
		h3.398v1.199h-2.898v0.8h2.099c0.5,0,0.899,0.399,0.899,0.899V7.77c0,0.5-0.399,0.899-0.899,0.899H37.354z"/>
	<path display="inline" fill="#666666" d="M47.781,6.57h-3.857c0.149,0.64,0.619,1.049,1.349,1.049c0.41,0,0.78-0.13,1.01-0.449h1.409
		c-0.38,0.97-1.31,1.599-2.349,1.599c-1.739,0-2.778-1.199-2.778-2.698s1.1-2.698,2.618-2.698
		C46.792,3.372,48.021,4.602,47.781,6.57z M43.924,5.57h2.519c-0.08-0.649-0.58-1.049-1.199-1.049
		C44.543,4.522,44.073,4.931,43.924,5.57z"/>
	<path display="inline" fill="#666666" d="M52.562,1.173h1.398v7.496h-1.398v-0.59c-0.42,0.45-1,0.689-1.659,0.689c-1.42,0-2.489-1.089-2.489-2.698
		s1.069-2.698,2.489-2.698c0.659,0,1.239,0.239,1.659,0.689V1.173z M52.562,6.07c0-0.829-0.601-1.449-1.399-1.449
		c-0.77,0-1.35,0.62-1.35,1.449c0,0.83,0.58,1.449,1.35,1.449C51.962,7.52,52.562,6.901,52.562,6.07z"/>
  </g>
</svg>
