<svg version="1.1" id="Main" xmlns="http://www.w3.org/2000/svg" xmlns:xlink="http://www.w3.org/1999/xlink" x="0px" y="0px"
	 viewBox="0 0 64 64" enable-background="new 0 0 64 64" xml:space="preserve">
<g id="Layer_1_1_">
	<g id="grey">
		<path fill="#C4C4C4" d="M0.5,35.3L23,54.1l40.4-23.3v-2L23,52.1L0.5,33.2V35.3z"/>
		<path fill="#929191" d="M0.5,33.2L23,52.1l40.4-23.3L40.8,10L0.5,33.2z"/>
		<path fill-rule="evenodd" clip-rule="evenodd" fill="#D4D4D4" d="M28.3,20.3l4.2,3.5l-0.7,0.4l-4.2-3.5
			C27.7,20.7,28.3,20.3,28.3,20.3z M35.3,26.2l4.2,3.5l-0.7,0.4l-4.2-3.5L35.3,26.2z M42.4,32.1l4.2,3.5L45.9,36l-4.2-3.5L42.4,32.1
			z M36.1,41.7l-4.2-3.5l0.7-0.4l4.2,3.5L36.1,41.7z M29.1,35.8l-4.2-3.5l0.7-0.4l4.2,3.5C29.7,35.4,29.1,35.8,29.1,35.8z M22,29.9
			l-4.2-3.5l0.6-0.4l4.2,3.5C22.7,29.5,22,29.9,22,29.9z"/>
		<path fill-rule="evenodd" clip-rule="evenodd" fill="#D4D4D4" d="M30.7,44.8l-4.2-3.5l0.7-0.4l4.2,3.5L30.7,44.8z M23.7,38.9
			l-4.2-3.5l0.7-0.4l4.2,3.5C24.4,38.5,23.7,38.9,23.7,38.9z M16.7,33l-4.2-3.5l0.6-0.4l4.2,3.5C17.3,32.6,16.7,33,16.7,33z"/>
		<path fill-rule="evenodd" clip-rule="evenodd" fill="#D4D4D4" d="M50.7,33.2l-4.2-3.5l0.7-0.4l4.2,3.5L50.7,33.2z M43.7,27.3
			l-4.2-3.5l0.7-0.4l4.2,3.5L43.7,27.3z M36.7,21.4l-4.2-3.5l0.6-0.4l4.2,3.5C37.3,21.1,36.7,21.4,36.7,21.4z"/>
		<path fill-rule="evenodd" clip-rule="evenodd" fill="#D4D4D4" d="M55.6,30l-4.3-3.5l0.7-0.4l4.3,3.5L55.6,30z M48.5,24.2l-4.3-3.5
			l0.7-0.4l4.3,3.5C49.2,23.8,48.5,24.2,48.5,24.2z M41.4,18.4L37.1,15l0.6-0.4L42,18L41.4,18.4z"/>
		<path fill-rule="evenodd" clip-rule="evenodd" fill="#D4D4D4" d="M25.8,48.1l-4.2-3.5l0.7-0.4l4.2,3.5L25.8,48.1z M18.8,42.2
			l-4.2-3.5l0.7-0.4l4.2,3.5L18.8,42.2z M11.8,36.3l-4.2-3.5l0.6-0.4l4.2,3.5C12.4,35.9,11.8,36.3,11.8,36.3z"/>
	</g>
	<g id="yellow">
		<path fill="#FBD508" d="M20.6,21.7L43,40.6l0.7-0.4L21.2,21.3L20.6,21.7z"/>
	</g>
	<g id="white">
		<polygon fill="#FFFFFF" points="21.9,40.6 21.6,37.5 20.3,38.3 17,35.4 15.7,36.2 19.1,39 17.8,39.8 		"/>
		<polygon fill="#FFFFFF" points="41.2,21.1 41.6,24.1 42.9,23.4 46.2,26.2 47.5,25.5 44.1,22.6 45.4,21.9 		"/>
		<polygon fill="#FFFFFF" points="27.1,37.5 26.8,34.5 25.5,35.2 22.1,32.4 20.8,33.1 24.2,36 22.9,36.7 		"/>
		<polygon fill="#FFFFFF" points="32.1,34.4 31.8,31.4 30.5,32.2 27.2,29.3 25.9,30 29.3,32.9 28,33.6 		"/>
		<polygon fill="#FFFFFF" points="36.4,24 36.7,27 38,26.2 41.3,29.1 42.6,28.3 39.2,25.5 40.5,24.8 		"/>
		<polygon fill="#FFFFFF" points="31.5,27 31.9,30 33.2,29.3 36.5,32.1 37.8,31.4 34.4,28.5 35.7,27.8 		"/>
		<polygon fill="#FFFFFF" points="46,17.8 46.4,20.8 47.7,20 51,22.9 52.3,22.1 48.9,19.3 50.2,18.6 		"/>
		<polygon fill="#FFFFFF" points="16.6,43.5 16.3,40.5 15,41.2 11.7,38.4 10.4,39.1 13.8,42 12.5,42.7 		"/>
	</g>
</g>
</svg>
