<svg version="1.1" id="Layer_1" xmlns="http://www.w3.org/2000/svg" xmlns:xlink="http://www.w3.org/1999/xlink" x="0px" y="0px"
	 viewBox="0 0 64 64" enable-background="new 0 0 64 64" xml:space="preserve">
<g id="grey">
	<path fill="#C4C4C4" d="M2.9,31.4l24.3,20.8L61,32.8v-2.2L27.2,50L2.9,29.3V31.4z"/>
	<path fill="#929191" d="M2.9,29.3L27.2,50L61,30.6L35.6,10.4L2.9,29.3z"/>
	<path fill-rule="evenodd" clip-rule="evenodd" fill="#D4D4D4" d="M28,18.2l4.6,3.9l-0.7,0.4l-4.6-3.9C27.3,18.6,28,18.2,28,18.2z
		 M35.7,24.6l4.6,3.9l-0.7,0.4L35,25L35.7,24.6z M43.3,31.1l4.6,3.9l-0.8,0.4l-4.6-3.9C42.6,31.5,43.3,31.1,43.3,31.1z M36.5,41.6
		l-4.6-3.9l0.8-0.4l4.6,3.9L36.5,41.6z M28.8,35.1l-4.6-3.9l0.7-0.4l4.6,3.9L28.8,35.1z M21.1,28.7l-4.6-3.9l0.7-0.4l4.6,3.9
		C21.8,28.2,21.1,28.7,21.1,28.7z"/>
</g>
<g id="yellow">
	<path fill="#FBD508" d="M19.5,19.7L44,40.3l0.8-0.4L20.2,19.3L19.5,19.7z"/>
</g>
<path fill-rule="evenodd" clip-rule="evenodd" fill="#D4D4D4" d="M30.6,45L26,41.1l0.8-0.4l4.6,3.9L30.6,45z M22.9,38.5l-4.6-3.9
	l0.7-0.4l4.6,3.9C23.7,38.1,22.9,38.5,22.9,38.5z M15.3,32l-4.6-3.9l0.7-0.4l4.6,3.9L15.3,32z"/>
<path fill-rule="evenodd" clip-rule="evenodd" fill="#D4D4D4" d="M52.5,32.3l-4.6-3.9l0.8-0.4l4.6,3.9L52.5,32.3z M44.8,25.9
	L40.2,22l0.7-0.4l4.6,3.9C45.5,25.4,44.8,25.9,44.8,25.9z M37.1,19.4l-4.6-3.9l0.7-0.4l4.6,3.9L37.1,19.4z"/>
<polygon fill="#FFFFFF" points="21,40.3 20.6,37 19.2,37.8 15.6,34.7 14.2,35.5 17.9,38.6 16.5,39.5 "/>
<polygon fill="#FFFFFF" points="42.1,19 42.5,22.3 43.9,21.5 47.6,24.6 48.9,23.8 45.2,20.7 46.6,19.9 "/>
<polygon fill="#FFFFFF" points="26.6,37 26.3,33.7 24.9,34.5 21.2,31.4 19.8,32.2 23.5,35.3 22.1,36.1 "/>
<polygon fill="#FFFFFF" points="32.2,33.6 31.8,30.3 30.4,31.1 26.7,28 25.3,28.8 29,31.9 27.6,32.7 "/>
<polygon fill="#FFFFFF" points="36.8,22.2 37.1,25.5 38.5,24.7 42.2,27.8 43.6,27 39.9,23.9 41.3,23 "/>
<polygon fill="#FFFFFF" points="31.5,25.5 31.9,28.8 33.3,28 37,31.1 38.3,30.3 34.6,27.2 36,26.4 "/>
</svg>
