<svg version="1.1" id="Layer_1" xmlns="http://www.w3.org/2000/svg" xmlns:xlink="http://www.w3.org/1999/xlink" x="0px" y="0px"
	 viewBox="0 0 64 64" enable-background="new 0 0 64 64" xml:space="preserve">
<g id="grey">
	<path fill="#C4C4C4" d="M2.9,31.4l24.3,20.8L61,32.8v-2.2L27.2,50L2.9,29.3V31.4z"/>
	<path fill="#929191" d="M2.9,29.3L27.2,50L61,30.6L35.6,10.4L2.9,29.3z"/>
	<path fill-rule="evenodd" clip-rule="evenodd" fill="#D4D4D4" d="M28,18.2l4.6,3.9l-0.7,0.4l-4.6-3.9C27.3,18.6,28,18.2,28,18.2z
		 M35.7,24.6l4.6,3.9l-0.7,0.4L35,25L35.7,24.6z M43.3,31.1l4.6,3.9l-0.8,0.4l-4.6-3.9C42.6,31.5,43.3,31.1,43.3,31.1z M36.5,41.6
		l-4.6-3.9l0.8-0.4l4.6,3.9L36.5,41.6z M28.8,35.1l-4.6-3.9l0.7-0.4l4.6,3.9L28.8,35.1z M21.1,28.7l-4.6-3.9l0.7-0.4l4.6,3.9
		C21.8,28.2,21.1,28.7,21.1,28.7z"/>
</g>
<g id="yellow">
	<path fill="#FBD508" d="M19.5,19.7L44,40.3l0.8-0.4L20.2,19.3L19.5,19.7z"/>
</g>
<path fill-rule="evenodd" clip-rule="evenodd" fill="#D4D4D4" d="M30.6,45L26,41.1l0.8-0.4l4.6,3.9L30.6,45z M22.9,38.5l-4.6-3.9
	l0.7-0.4l4.6,3.9C23.7,38.1,22.9,38.5,22.9,38.5z M15.3,32l-4.6-3.9l0.7-0.4l4.6,3.9L15.3,32z"/>
<path fill-rule="evenodd" clip-rule="evenodd" fill="#D4D4D4" d="M52.5,32.3l-4.6-3.9l0.8-0.4l4.6,3.9L52.5,32.3z M44.8,25.9
	L40.2,22l0.7-0.4l4.6,3.9C45.5,25.4,44.8,25.9,44.8,25.9z M37.1,19.4l-4.6-3.9l0.7-0.4l4.6,3.9L37.1,19.4z"/>
<polygon fill="#FFFFFF" points="21,40.3 20.6,37 19.2,37.8 15.6,34.7 14.2,35.5 17.9,38.6 16.5,39.5 "/>
<polygon fill="#FFFFFF" points="42.1,19 42.5,22.3 43.9,21.5 47.6,24.6 48.9,23.8 45.2,20.7 46.6,19.9 "/>
<polygon fill="#FFFFFF" points="26.6,37 26.3,33.7 24.9,34.5 21.2,31.4 19.8,32.2 23.5,35.3 22.1,36.1 "/>
<polygon fill="#FFFFFF" points="32.2,33.6 31.8,30.3 30.4,31.1 26.7,28 25.3,28.8 29,31.9 27.6,32.7 "/>
<polygon fill="#FFFFFF" points="36.8,22.2 37.1,25.5 38.5,24.7 42.2,27.8 43.6,27 39.9,23.9 41.3,23 "/>
<polygon fill="#FFFFFF" points="31.5,25.5 31.9,28.8 33.3,28 37,31.1 38.3,30.3 34.6,27.2 36,26.4 "/>
  <g id="Reversed_Text" enable-background="new    ">
	<path display="inline" fill="#666666" d="M13.572,8.669L11.692,6.17h-0.939v2.499H9.354V1.673h4.697c0.5,0,0.899,0.399,0.899,0.899v2.698
		c0,0.5-0.399,0.899-0.899,0.899h-0.709l1.879,2.499H13.572z M10.753,2.922v1.999h2.799V2.922H10.753z"/>
	<path display="inline" fill="#666666" d="M20.971,6.57h-3.858c0.15,0.64,0.62,1.049,1.349,1.049c0.41,0,0.78-0.13,1.009-0.449h1.41
		c-0.38,0.97-1.31,1.599-2.349,1.599c-1.739,0-2.778-1.199-2.778-2.698s1.1-2.698,2.619-2.698
		C19.981,3.372,21.211,4.602,20.971,6.57z M17.113,5.57h2.519c-0.08-0.649-0.58-1.049-1.199-1.049
		C17.733,4.522,17.263,4.931,17.113,5.57z"/>
	<path display="inline" fill="#666666" d="M25.502,3.472h1.5l-2.199,5.197h-1.399l-2.199-5.197h1.499l1.429,3.559L25.502,3.472z"/>
	<path display="inline" fill="#666666" d="M32.421,6.57h-3.858c0.15,0.64,0.62,1.049,1.349,1.049c0.41,0,0.78-0.13,1.009-0.449h1.41
		c-0.38,0.97-1.31,1.599-2.349,1.599c-1.739,0-2.778-1.199-2.778-2.698s1.1-2.698,2.619-2.698
		C31.432,3.372,32.661,4.602,32.421,6.57z M28.563,5.57h2.519c-0.08-0.649-0.58-1.049-1.199-1.049
		C29.183,4.522,28.713,4.931,28.563,5.57z"/>
	<path display="inline" fill="#666666" d="M33.354,8.669V4.371c0-0.499,0.399-0.899,0.899-0.899h2.398v1.249h-1.898v3.948H33.354z"/>
	<path display="inline" fill="#666666" d="M37.354,8.669V7.47h2.999v-0.8h-2.1c-0.499,0-0.899-0.399-0.899-0.899V4.371c0-0.499,0.4-0.899,0.899-0.899
		h3.398v1.199h-2.898v0.8h2.099c0.5,0,0.899,0.399,0.899,0.899V7.77c0,0.5-0.399,0.899-0.899,0.899H37.354z"/>
	<path display="inline" fill="#666666" d="M47.781,6.57h-3.857c0.149,0.64,0.619,1.049,1.349,1.049c0.41,0,0.78-0.13,1.01-0.449h1.409
		c-0.38,0.97-1.31,1.599-2.349,1.599c-1.739,0-2.778-1.199-2.778-2.698s1.1-2.698,2.618-2.698
		C46.792,3.372,48.021,4.602,47.781,6.57z M43.924,5.57h2.519c-0.08-0.649-0.58-1.049-1.199-1.049
		C44.543,4.522,44.073,4.931,43.924,5.57z"/>
	<path display="inline" fill="#666666" d="M52.562,1.173h1.398v7.496h-1.398v-0.59c-0.42,0.45-1,0.689-1.659,0.689c-1.42,0-2.489-1.089-2.489-2.698
		s1.069-2.698,2.489-2.698c0.659,0,1.239,0.239,1.659,0.689V1.173z M52.562,6.07c0-0.829-0.601-1.449-1.399-1.449
		c-0.77,0-1.35,0.62-1.35,1.449c0,0.83,0.58,1.449,1.35,1.449C51.962,7.52,52.562,6.901,52.562,6.07z"/>
  </g>
</svg>
