<svg xmlns="http://www.w3.org/2000/svg" xml:space="preserve" fill-rule="evenodd" stroke-linejoin="round" stroke-miterlimit="2" clip-rule="evenodd" viewBox="0 0 64 64">
  <g id="grey">
    <path fill="#909090" d="m26.505 43.278 5.482 4.6-11.415 6.415-5.358-4.496 11.291-6.519Z"/>
    <path fill="#575757" d="m31.987 47.878 1.959 1.574-13.47 7.687.096-2.846 11.415-6.415Z"/>
    <path fill="#ababab" d="m20.572 54.293-.096 2.846-5.358-4.496.096-2.846 5.358 4.496Z"/>
    <path fill="#444" fill-rule="nonzero" d="M.529 21.481 47.85 61.189l15.71-9.071v-1.765l-15.548 8.976L.508 19.468l.021 2.013Z"/>
    <path fill="#929191" fill-rule="nonzero" d="m.439 19.507 47.505 39.862 15.617-9.016-47.505-39.862L.439 19.507Z"/>
    <path fill="#d4d4d4" d="m41.49 35.236 2.545 2.133-.396.229-2.538-2.137.389-.225Zm4.242 3.556 2.545 2.133-.408.236-2.538-2.137.401-.232Zm4.243 3.556 2.544 2.133-.42.243-2.538-2.137.414-.239ZM33.014 28.12l2.545 2.133-.409.237-2.537-2.138.401-.232Zm4.242 3.556 2.545 2.133-.421.243-2.538-2.137.414-.239Zm16.957 14.235 2.545 2.134-.397.229-2.538-2.138.39-.225Zm4.242 3.556L61 51.601l-.409.236-2.538-2.138.402-.232ZM13.69 11.909l.639.533-.397.229-.632-.537.39-.225Zm2.335 1.955 2.546 2.134-.409.236-2.538-2.138.401-.232Zm4.243 3.557 2.545 2.133-.421.243-2.538-2.137.414-.239Zm4.238 3.563 2.545 2.134-.397.229-2.538-2.138.39-.225Zm4.242 3.556 2.545 2.134-.409.236-2.538-2.138.402-.232Zm10.257 12.131 2.545 2.133-.396.229-2.538-2.137.389-.225Zm4.242 3.555 2.545 2.134-.409.236-2.538-2.138.402-.232Zm4.242 3.556 2.545 2.134-.421.243-2.538-2.138.414-.239Zm-16.96-14.227 2.545 2.133-.409.236-2.538-2.137.402-.232Zm4.242 3.556 2.545 2.133-.421.243-2.538-2.137.414-.239Zm16.956 14.235 2.546 2.133-.397.23-2.538-2.138.389-.225Zm4.242 3.556 2.546 2.134-.409.236-2.538-2.138.401-.232ZM11.205 13.343l.638.534-.396.229-.632-.537.39-.226Zm2.335 1.956 2.545 2.134-.408.236-2.538-2.138.401-.232Zm4.242 3.556 2.545 2.134-.421.243-2.537-2.138.413-.239Zm4.239 3.564 2.545 2.133-.397.23-2.538-2.138.39-.225Zm4.242 3.556 2.545 2.134-.409.236-2.538-2.138.402-.232Zm7.602 13.663 2.546 2.133-.397.23-2.538-2.138.389-.225Zm4.242 3.556 2.546 2.133-.409.237-2.538-2.138.401-.232Zm4.243 3.556 2.545 2.133-.421.243-2.538-2.137.414-.239ZM25.389 32.522l2.546 2.134-.409.236-2.538-2.138.401-.232Zm4.243 3.556 2.545 2.133-.421.243-2.538-2.137.414-.239Zm16.956 14.235 2.545 2.134-.396.229-2.538-2.137.389-.226Zm4.242 3.556 2.545 2.134-.409.236-2.537-2.138.401-.232ZM6.065 16.311l.639.533-.397.229-.631-.537.389-.225Zm2.336 1.956 2.545 2.133-.409.237-2.538-2.138.402-.232Zm4.242 3.556 2.545 2.133-.421.243-2.538-2.137.414-.239Zm4.238 3.563 2.545 2.134-.396.229-2.538-2.138.389-.225Zm4.242 3.556 2.545 2.134-.408.236-2.538-2.138.401-.232Zm10.373 12.064 2.546 2.133-.397.229-2.538-2.137.389-.225Zm4.242 3.555 2.546 2.134-.409.236-2.538-2.138.401-.232Zm4.243 3.557 2.545 2.133-.421.243-2.538-2.137.414-.239ZM23.02 33.89l2.546 2.133-.409.237-2.538-2.138.401-.232Zm4.243 3.556 2.545 2.133-.421.243-2.538-2.137.414-.239Zm16.956 14.235 2.545 2.134-.397.229-2.538-2.138.39-.225Zm4.242 3.556 2.545 2.134-.409.236-2.538-2.138.402-.232ZM3.696 17.679l.639.533-.397.229-.631-.537.389-.225Zm2.335 1.955 2.546 2.134-.409.236-2.538-2.138.401-.232Zm4.243 3.557 2.545 2.133-.421.243-2.538-2.138.414-.238Zm4.238 3.563 2.545 2.134-.396.229-2.538-2.138.389-.225Zm4.242 3.556 2.545 2.134-.409.236-2.538-2.138.402-.232Z"/>
    <path fill="#525252" d="m9.04 14.541 47.505 39.862-1.175.678L7.865 15.22l1.175-.679Z"/>
    <path fill="#c2bdbd" d="m28.444 8.167.974-.562 2.072 1.739-.974.562-.044 24.262-2.021-1.68-.007-24.321Z"/>
    <path fill="#707070" d="m25.584 42.506 4.29 3.599-.045 2.332-4.237-3.54-.008-2.391ZM31.49 9.344l.024 24.222-1.042.602.044-24.262.974-.562Z"/>
    <path fill="#2e2e2e" d="m29.874 46.105 1.677 1.338-1.722.994.045-2.332Z"/>
    <path fill="#131313" d="M28.447 11.154v1.172l-17.558 5.028-.683-.574 18.241-5.626ZM16.365 21.811l12.082-3.354v1.172l-11.315 2.825-.767-.643Zm6 5.034 6.082-1.329v1.172l-5.315.801-.767-.644Zm15.654 13.136-7.032-11.578-.038-1.703 8.97 14.874-1.9-1.593Zm7.561 6.344L30.981 20.717l-.032-2.017 16.71 29.369-2.079-1.744Zm7.463 6.262-22.094-39.49V11.12l24.044 43.103-1.95-1.636Z"/>
  </g>
  <g id="white">
    <path fill="#fff" d="m53.633 51.746-.117-1.062 2.253.424-.694.393 1.838 1.507-.692.391-1.827-1.509-.522.291-.239-.435Zm2.159-2.405 2.252.424-.694.393 1.839 1.507-.692.391-1.827-1.509-.702.392-.176-1.598Zm-4.521 6.925-2.253-.425.694-.392-1.838-1.507.692-.391 1.826 1.509.702-.392.177 1.598ZM58.165 48l2.253.424-.694.393 1.838 1.507-.692.39-1.826-1.509-.702.392L58.165 48Zm-9.268 9.607-2.253-.424.694-.393-1.838-1.507.692-.391 1.827 1.509.701-.391.177 1.597Zm4.649-2.684-2.252-.424.694-.393-1.839-1.507.692-.391 1.827 1.509.702-.392.176 1.598Z"/>
  </g>
  <g id="Reversed_Text" enable-background="new    ">
	<path display="inline" fill="#666666" d="M13.572,8.669L11.692,6.17h-0.939v2.499H9.354V1.673h4.697c0.5,0,0.899,0.399,0.899,0.899v2.698
		c0,0.5-0.399,0.899-0.899,0.899h-0.709l1.879,2.499H13.572z M10.753,2.922v1.999h2.799V2.922H10.753z"/>
	<path display="inline" fill="#666666" d="M20.971,6.57h-3.858c0.15,0.64,0.62,1.049,1.349,1.049c0.41,0,0.78-0.13,1.009-0.449h1.41
		c-0.38,0.97-1.31,1.599-2.349,1.599c-1.739,0-2.778-1.199-2.778-2.698s1.1-2.698,2.619-2.698
		C19.981,3.372,21.211,4.602,20.971,6.57z M17.113,5.57h2.519c-0.08-0.649-0.58-1.049-1.199-1.049
		C17.733,4.522,17.263,4.931,17.113,5.57z"/>
	<path display="inline" fill="#666666" d="M25.502,3.472h1.5l-2.199,5.197h-1.399l-2.199-5.197h1.499l1.429,3.559L25.502,3.472z"/>
	<path display="inline" fill="#666666" d="M32.421,6.57h-3.858c0.15,0.64,0.62,1.049,1.349,1.049c0.41,0,0.78-0.13,1.009-0.449h1.41
		c-0.38,0.97-1.31,1.599-2.349,1.599c-1.739,0-2.778-1.199-2.778-2.698s1.1-2.698,2.619-2.698
		C31.432,3.372,32.661,4.602,32.421,6.57z M28.563,5.57h2.519c-0.08-0.649-0.58-1.049-1.199-1.049
		C29.183,4.522,28.713,4.931,28.563,5.57z"/>
	<path display="inline" fill="#666666" d="M33.354,8.669V4.371c0-0.499,0.399-0.899,0.899-0.899h2.398v1.249h-1.898v3.948H33.354z"/>
	<path display="inline" fill="#666666" d="M37.354,8.669V7.47h2.999v-0.8h-2.1c-0.499,0-0.899-0.399-0.899-0.899V4.371c0-0.499,0.4-0.899,0.899-0.899
		h3.398v1.199h-2.898v0.8h2.099c0.5,0,0.899,0.399,0.899,0.899V7.77c0,0.5-0.399,0.899-0.899,0.899H37.354z"/>
	<path display="inline" fill="#666666" d="M47.781,6.57h-3.857c0.149,0.64,0.619,1.049,1.349,1.049c0.41,0,0.78-0.13,1.01-0.449h1.409
		c-0.38,0.97-1.31,1.599-2.349,1.599c-1.739,0-2.778-1.199-2.778-2.698s1.1-2.698,2.618-2.698
		C46.792,3.372,48.021,4.602,47.781,6.57z M43.924,5.57h2.519c-0.08-0.649-0.58-1.049-1.199-1.049
		C44.543,4.522,44.073,4.931,43.924,5.57z"/>
	<path display="inline" fill="#666666" d="M52.562,1.173h1.398v7.496h-1.398v-0.59c-0.42,0.45-1,0.689-1.659,0.689c-1.42,0-2.489-1.089-2.489-2.698
		s1.069-2.698,2.489-2.698c0.659,0,1.239,0.239,1.659,0.689V1.173z M52.562,6.07c0-0.829-0.601-1.449-1.399-1.449
		c-0.77,0-1.35,0.62-1.35,1.449c0,0.83,0.58,1.449,1.35,1.449C51.962,7.52,52.562,6.901,52.562,6.07z"/>
  </g>
</svg>
