<svg xmlns="http://www.w3.org/2000/svg" xml:space="preserve" fill-rule="evenodd" stroke-linejoin="round" stroke-miterlimit="2" clip-rule="evenodd" viewBox="0 0 64 64">
  <g id="grey">
    <path fill="#444" fill-rule="nonzero" d="m.87 19.914 47.321 39.707 14.772-8.529v-1.765l-14.61 8.435L.848 17.9l.022 2.014Z"/>
    <path fill="#929191" fill-rule="nonzero" d="m.78 17.94 47.505 39.862 14.679-8.475L15.459 9.465.78 17.94Z"/>
    <path fill="#d4d4d4" d="m20.707 29.124 3.741 3.135-.583.337-3.73-3.141.572-.331Zm6.234 5.225 3.741 3.136-.601.347-3.73-3.142.59-.341Zm6.235 5.226 3.74 3.136-.618.357-3.73-3.141.608-.352ZM4.689 15.683l1.068.893-.583.337-1.057-.899.572-.331Zm3.562 2.983 3.74 3.136-.6.347-3.73-3.142.59-.341Zm6.235 5.226 3.74 3.135-.619.358-3.73-3.142.609-.351Zm24.918 20.921 3.741 3.135-.583.337-3.73-3.142.572-.33Zm6.234 5.225 3.741 3.136-.601.347-3.729-3.142.589-.341Zm6.235 5.226.331.275-.618.357-.321-.281.608-.351Zm-23.68-30.462 3.741 3.135-.583.337-3.73-3.141.572-.331Zm6.234 5.226 3.741 3.135-.601.347-3.73-3.141.59-.341Zm6.235 5.226 3.74 3.135-.619.357-3.73-3.141.609-.351ZM12.175 11.361l1.068.893-.583.337-1.058-.899.573-.331Zm3.561 2.983 3.741 3.136-.601.347-3.73-3.142.59-.341Zm6.235 5.226 3.74 3.135-.618.358-3.73-3.141.608-.352ZM46.89 40.491l3.741 3.135-.583.337-3.73-3.141.572-.331Zm6.234 5.225 3.741 3.136-.601.347-3.73-3.142.59-.341ZM8.618 13.337l47.564 39.905-.601.347L8.028 13.678l.59-.341Zm50.741 37.605.331.275-.619.357-.321-.28.609-.352Z"/>
    <path fill="#525252" d="M9.574 17.009v1.392l-1.857-1.558V15.45l1.857 1.559Zm21-12.124v1.392l-1.857-1.559V3.326l1.857 1.559Zm4.633 33.632v1.393l-1.858-1.559v-1.393l1.858 1.559Zm21-12.124v1.392l-1.858-1.558v-1.393l1.858 1.559Z"/>
    <path fill="#575757" d="m9.853 14.217 1.845 1.608-.968.03-1.134 1.173-1.879-1.578 1.17-1.176.966-.057Zm21-12.125L32.698 3.7l-.968.03-1.134 1.173-1.879-1.577 1.17-1.177.966-.057Zm4.633 33.633 1.844 1.608-.967.03-1.134 1.173-1.88-1.578 1.17-1.176.967-.057Zm21-12.124 1.844 1.608-.967.029-1.134 1.173-1.88-1.577 1.17-1.176.967-.057Z"/>
    <path fill="#2e2e2e" d="m11.698 15.825-.036 1.371-2.088 1.205v-1.392l1.098-1.225 1.026.041Zm21-12.125-.036 1.372-2.088 1.205V4.885l1.098-1.226 1.026.041Zm4.632 33.633-.036 1.371-2.087 1.206v-1.393l1.098-1.225 1.025.041Zm21-12.124-.036 1.371-2.087 1.205v-1.392l1.098-1.226 1.025.042Z"/>
  </g>
  <g id="white" fill="#fff">
    <path d="m52.064 47.56 3.278.617-1.01.572 2.676 2.193-1.007.569-2.659-2.196-1.021.57-.257-2.325Zm3.455-1.952 3.278.617-1.01.572 2.676 2.193-1.007.569-2.659-2.196-1.021.57-.257-2.325Zm-2.924 7.924-3.278-.617 1.01-.572-2.676-2.193 1.007-.569 2.659 2.196 1.021-.57.257 2.325Zm-3.986 2.259-3.278-.617 1.01-.572-2.676-2.193 1.007-.569 2.659 2.196 1.021-.57.257 2.325Z"/>
  </g>
  <g id="brown">
    <path fill="#a2886b" d="m28.122 14.655-1.272-1.067.826-.477 2.708 2.272 3.308-1.91v-1.154l1.594 1.337-4.932 2.848v.023l-.017-.014-2.215-1.858Zm-15.43 5.267-3.32 1.917-2.928-2.457.838-.484v.637l2.209 1.853 2.485-1.435v-.631l.716.6Zm0 0-.72-.611-.016-1.065 16.099-9.295 2.1 1.762-17.463 10.002v-.793Zm41.064 16.242-1.273-1.068.825-.477 2.708 2.272 3.309-1.91v-1.154l1.593 1.337-4.931 2.848v.023l-.017-.014-2.214-1.857Zm-15.431 5.267-3.32 1.916-2.928-2.457.838-.484v.637l2.208 1.853 2.486-1.435v-.631l.716.601Zm0 0-.721-.611-.015-1.066 16.099-9.294 2.1 1.761-17.463 10.002v-.792ZM2.297 30.374a1.508 1.508 0 0 1 .753-1.243l1.922-1.11v2.408l4.382 3.676 4.932-2.847v-.087l1.734 1.456-4.929 2.842a3.355 3.355 0 0 1-2.127.564s-.945-.076-1.471-.567l-4.78-4.011c-.264-.238-.401-.594-.416-1.081Zm23.675-12.087-1.687-1.416 1.687-.974v2.39Zm9.314-1.432 1.763 1.479a1.5 1.5 0 0 1 .537 1.098c-.023.449-.17.791-.45 1.02l-5.087 2.935-1.684-1.413 4.921-2.84v-2.279Zm-23.617.079.307.258-2.485 1.435v.012l-2.209-1.853.435-.251v.308l1.857 1.558 2.088-1.205.007-.262Zm1.023 7.509 1.594 1.337-4.949 2.858-4.365-3.663 1.472-.85v.916l2.94 2.466 3.308-1.91v-1.154ZM32.669 4.81l.307.258-2.485 1.435v.012l-2.209-1.853.435-.251v.307l1.857 1.559 2.088-1.205.007-.262Zm.307 2.387.716.601-3.32 1.917-2.928-2.457.838-.484v.637l2.209 1.853 2.485-1.435v-.632ZM27.93 51.882a1.504 1.504 0 0 1 .753-1.242l1.922-1.11v2.407l4.382 3.677 4.931-2.848v-.086l1.735 1.455-4.93 2.842a3.354 3.354 0 0 1-2.126.564s-.946-.076-1.471-.567l-4.78-4.011c-.265-.238-.401-.595-.416-1.081Zm23.675-12.086-1.688-1.416 1.688-.975v2.391Zm9.313-1.434 1.764 1.48c.328.276.521.676.537 1.098-.023.449-.171.791-.45 1.02l-5.087 2.935-1.684-1.413 4.92-2.84v-2.28Zm-23.617.08.308.259-2.486 1.435v.012l-2.208-1.853.434-.251v.307l1.858 1.559 2.087-1.206.007-.262Zm1.024 7.509 1.593 1.338-4.948 2.857-4.365-3.663 1.472-.849v.915l2.939 2.466 3.309-1.91v-1.154Zm19.976-19.633.308.258-2.486 1.435v.012l-2.208-1.853.434-.251v.308l1.858 1.558 2.087-1.205.007-.262Zm.308 2.388.716.6-3.32 1.917-2.928-2.457.838-.484v.637l2.208 1.853 2.486-1.435v-.631Z"/>
    <path fill="#8f7148" d="M30.155 10.633v1.047L12.692 21.762v-1.047l17.463-10.082Zm25.633 21.508v1.047L38.325 43.27v-1.047l17.463-10.082Z"/>
  </g>
  <g id="green">
    <path fill="#002612" d="m32.049 23.387 5.087-2.935c.284-.233.432-.582.451-1.042v4.47c.01.364-.137.634-.44.811l-2.073 1.233-3.025-2.537ZM19.153 35.255l-8.22 4.738-.002-.001-.012.007c-.555.32-1.252.445-1.919.386v-3.111l-.041-.058.005-1.183a3.355 3.355 0 0 0 2.127-.564l4.929-2.842 3.133 2.628Zm38.529 9.64 5.087-2.935c.284-.233.431-.582.451-1.042v4.471c.009.363-.138.634-.441.81l-2.073 1.234-3.024-2.538ZM44.785 56.763 36.564 61.5l-.013.007c-.555.321-1.251.446-1.919.387v-3.112l-.04-.058.005-1.183a3.354 3.354 0 0 0 2.126-.564l4.93-2.842 3.132 2.628Z"/>
    <path fill="#274100" d="M2.297 30.286c0 .532.136.917.416 1.169l4.78 4.011c.526.491 1.471.567 1.471.567l-.002.854.038-.003v3.501a3.132 3.132 0 0 1-1.382-.44.945.945 0 0 1-.282-.177l-4.475-3.755a1.74 1.74 0 0 1-.564-1.287v-4.44Zm11.989-4.506v5.478l-4.932 2.847v-5.477l4.932-2.848Zm-1.594-5.858v5.675l-3.308 1.91v-5.674l3.308-1.911Zm-.716-2.73v2.761l-2.485 1.435v-2.761l2.485-1.435Zm23.31-3.536v5.478l-4.932 2.847v-5.477l4.932-2.848Zm-1.594-5.858v5.675l-3.308 1.91V9.708l3.308-1.91Zm-.716-2.73v2.761l-2.485 1.435V6.503l2.485-1.435Zm-5.047 46.727c0 .531.137.916.417 1.168l4.78 4.011c.525.491 1.471.567 1.471.567l-.002.854.037-.003v3.502a3.166 3.166 0 0 1-1.382-.44.995.995 0 0 1-.282-.178l-4.475-3.754a1.75 1.75 0 0 1-.564-1.288v-4.439Zm11.989-4.506v5.477l-4.931 2.848v-5.478l4.931-2.847Zm-1.593-5.858v5.674l-3.309 1.91v-5.674l3.309-1.91Zm-.716-2.73v2.76l-2.486 1.435v-2.76l2.486-1.435Zm23.309-3.537v5.478l-4.931 2.847v-5.477l4.931-2.848Zm-1.593-5.858v5.675l-3.309 1.91v-5.675l3.309-1.91Zm-.716-2.73v2.761l-2.486 1.435v-2.761l2.486-1.435Z"/>
    <path fill="#738d56" d="M9.354 28.652v5.453l-4.382-3.676v-5.454l4.382 3.677Zm.03-6.804v5.659l-2.94-2.466v-5.659l2.94 2.466Zm.107-3.209v2.749l-2.209-1.853v-2.749l2.209 1.853Zm17.953-9.335V7.258l2.94 2.466v5.659l-2.708-2.272 2.479-1.431v-1.047l-.057.033-2.043-1.715-.611.353Zm-.594 4.284 3.504 2.939v5.454l-4.382-3.677v-4.209l.878-.507Zm3.641-7.073v2.749l-2.209-1.853V4.662l2.209 1.853Zm4.496 43.645v5.454l-4.382-3.677v-5.454l4.382 3.677Zm.029-6.803v5.658l-2.939-2.466V40.89l2.939 2.467Zm.107-3.209v2.748l-2.208-1.853v-2.748l2.208 1.853Zm17.954-9.335v-2.047l2.939 2.466v5.659l-2.708-2.272 2.48-1.431v-1.047l-.057.033-2.043-1.714-.611.353Zm-.594 4.283 3.504 2.939v5.454l-4.382-3.676v-4.21l.878-.507Zm3.64-7.073v2.749l-2.208-1.853V26.17l2.208 1.853Z"/>
    <path fill="#36630a" d="M47.104 34.261V30.08a25.42 25.42 0 0 1-1.484-.666v5.359l-.61-.511v-5.156a27.29 27.29 0 0 1-1.456-.817V33l-.61-.5v-4.589c-.49-.313-.976-.644-1.456-.993v4.388l-.61-.512v-4.33a32.09 32.09 0 0 1-1.426-1.157v4.291l-.61-.512v-4.315a36.782 36.782 0 0 1-1.496-1.426v4.486l-.589-.494.001-4.597a41.71 41.71 0 0 1-1.466-1.628l.003 4.998-.613-.515v-5.211a48.487 48.487 0 0 1-1.456-1.867v5.856l-.61-.511v-6.13h.038a58.5 58.5 0 0 1-1.494-2.198v7.106l-.61-.511v-7.557a68.834 68.834 0 0 1-1.645-2.793l.532-.298c1.843 3.299 3.793 6.196 5.853 8.684h.002v.002c1.951 2.356 4 4.345 6.15 5.961h.046v.034c3.468 2.597 7.197 4.223 11.195 4.856l-.003.024-.792.457a24.28 24.28 0 0 1-2.137-.502v1.736l-.61.352v-2.27c-.48-.149-.956-.314-1.427-.493v3.587l-.61.352Zm2.647 2.412v1.567l-.61-.512v-.703l.61-.352Zm-16.836 3.253a24.862 24.862 0 0 1-1.149-.406v6.293l-.534-.422v-6.082a25.522 25.522 0 0 1-1.554-.695v5.515l-.548-.502v-5.289a26.418 26.418 0 0 1-1.515-.848v4.866l-.552-.463v-4.744a28.88 28.88 0 0 1-1.525-1.037v4.501l-.531-.445v-4.45a32.855 32.855 0 0 1-1.534-1.243v4.405l-.475-.38v-4.442a35.9 35.9 0 0 1-1.623-1.544v4.668l-.466-.453v-4.694a41.701 41.701 0 0 1-1.571-1.739v5.165l-.524-.49v-5.299a48.48 48.48 0 0 1-1.519-1.943v5.967l-.568-.477V26.95a58.828 58.828 0 0 1-1.499-2.204v7.26l-.566-.52v-7.632a68.283 68.283 0 0 1-1.695-2.873l.532-.298c1.839 3.292 3.784 6.184 5.839 8.668 1.949 2.356 3.996 4.346 6.144 5.963h.056v.042c2.339 1.753 4.797 3.065 7.377 3.928v.642Z"/>
  </g>
  <g id="Reversed_Text" enable-background="new    ">
	<path display="inline" fill="#666666" d="M13.572,8.669L11.692,6.17h-0.939v2.499H9.354V1.673h4.697c0.5,0,0.899,0.399,0.899,0.899v2.698
		c0,0.5-0.399,0.899-0.899,0.899h-0.709l1.879,2.499H13.572z M10.753,2.922v1.999h2.799V2.922H10.753z"/>
	<path display="inline" fill="#666666" d="M20.971,6.57h-3.858c0.15,0.64,0.62,1.049,1.349,1.049c0.41,0,0.78-0.13,1.009-0.449h1.41
		c-0.38,0.97-1.31,1.599-2.349,1.599c-1.739,0-2.778-1.199-2.778-2.698s1.1-2.698,2.619-2.698
		C19.981,3.372,21.211,4.602,20.971,6.57z M17.113,5.57h2.519c-0.08-0.649-0.58-1.049-1.199-1.049
		C17.733,4.522,17.263,4.931,17.113,5.57z"/>
	<path display="inline" fill="#666666" d="M25.502,3.472h1.5l-2.199,5.197h-1.399l-2.199-5.197h1.499l1.429,3.559L25.502,3.472z"/>
	<path display="inline" fill="#666666" d="M32.421,6.57h-3.858c0.15,0.64,0.62,1.049,1.349,1.049c0.41,0,0.78-0.13,1.009-0.449h1.41
		c-0.38,0.97-1.31,1.599-2.349,1.599c-1.739,0-2.778-1.199-2.778-2.698s1.1-2.698,2.619-2.698
		C31.432,3.372,32.661,4.602,32.421,6.57z M28.563,5.57h2.519c-0.08-0.649-0.58-1.049-1.199-1.049
		C29.183,4.522,28.713,4.931,28.563,5.57z"/>
	<path display="inline" fill="#666666" d="M33.354,8.669V4.371c0-0.499,0.399-0.899,0.899-0.899h2.398v1.249h-1.898v3.948H33.354z"/>
	<path display="inline" fill="#666666" d="M37.354,8.669V7.47h2.999v-0.8h-2.1c-0.499,0-0.899-0.399-0.899-0.899V4.371c0-0.499,0.4-0.899,0.899-0.899
		h3.398v1.199h-2.898v0.8h2.099c0.5,0,0.899,0.399,0.899,0.899V7.77c0,0.5-0.399,0.899-0.899,0.899H37.354z"/>
	<path display="inline" fill="#666666" d="M47.781,6.57h-3.857c0.149,0.64,0.619,1.049,1.349,1.049c0.41,0,0.78-0.13,1.01-0.449h1.409
		c-0.38,0.97-1.31,1.599-2.349,1.599c-1.739,0-2.778-1.199-2.778-2.698s1.1-2.698,2.618-2.698
		C46.792,3.372,48.021,4.602,47.781,6.57z M43.924,5.57h2.519c-0.08-0.649-0.58-1.049-1.199-1.049
		C44.543,4.522,44.073,4.931,43.924,5.57z"/>
	<path display="inline" fill="#666666" d="M52.562,1.173h1.398v7.496h-1.398v-0.59c-0.42,0.45-1,0.689-1.659,0.689c-1.42,0-2.489-1.089-2.489-2.698
		s1.069-2.698,2.489-2.698c0.659,0,1.239,0.239,1.659,0.689V1.173z M52.562,6.07c0-0.829-0.601-1.449-1.399-1.449
		c-0.77,0-1.35,0.62-1.35,1.449c0,0.83,0.58,1.449,1.35,1.449C51.962,7.52,52.562,6.901,52.562,6.07z"/>
  </g>
</svg>
