<?xml version="1.0" encoding="UTF-8" standalone="no"?><!DOCTYPE svg PUBLIC "-//W3C//DTD SVG 1.1//EN" "http://www.w3.org/Graphics/SVG/1.1/DTD/svg11.dtd"><svg width="100%" height="100%" viewBox="0 0 64 64" version="1.1" xmlns="http://www.w3.org/2000/svg" xmlns:xlink="http://www.w3.org/1999/xlink" xml:space="preserve" xmlns:serif="http://www.serif.com/" style="fill-rule:evenodd;clip-rule:evenodd;stroke-linejoin:round;stroke-miterlimit:2;"><g id="blue"><path d="M43.084,49.028L45.521,51.074C45.16,51.624 44.929,52.276 44.929,52.856C44.929,53.235 45.027,53.531 45.197,53.728L42.432,51.375C42.363,50.496 42.618,49.637 43.084,49.028Z" style="fill:#61a2d3;"/><path d="M45.749,48.339L47.599,49.89L47.576,49.903C47.295,49.793 46.935,49.837 46.54,50.065C46.154,50.288 45.798,50.651 45.521,51.074L43.082,49.029C43.386,48.632 43.779,48.34 44.231,48.216C45.106,47.967 45.539,48.182 45.688,48.288C45.719,48.311 45.738,48.33 45.749,48.339Z" style="fill:#7ac6ff;"/><path d="M42.435,51.412C42.305,49.948 43.073,48.534 44.231,48.216C45.35,47.898 45.747,48.339 45.747,48.339L44.078,46.937L39.944,49.323L42.435,51.412Z" style="fill:#4a6168;"/><path d="M46.54,50.065C47.429,49.552 48.152,49.969 48.152,50.995C48.152,52.022 47.429,53.273 46.54,53.786C45.651,54.3 44.929,53.883 44.929,52.856C44.929,51.829 45.651,50.579 46.54,50.065ZM46.548,50.589C45.907,50.96 45.386,51.862 45.386,52.603C45.386,53.344 45.907,53.645 46.548,53.275C47.189,52.904 47.71,52.002 47.71,51.261C47.71,50.52 47.189,50.219 46.548,50.589Z" style="fill:#4a6168;"/><path d="M46.548,50.589C47.189,50.219 47.71,50.52 47.71,51.261C47.71,52.002 47.189,52.904 46.548,53.275C45.907,53.645 45.386,53.344 45.386,52.603C45.386,51.862 45.907,50.96 46.548,50.589Z" style="fill:#324565;"/></g><g id="brown"><path d="M55.036,48.049L52.271,45.705C52.2,44.823 52.453,43.96 52.921,43.348L55.359,45.394C54.997,45.944 54.768,46.596 54.768,47.176C54.768,47.556 54.865,47.853 55.036,48.049Z" style="fill:#aa7850;"/><path d="M55.359,45.394L52.92,43.349C53.224,42.952 53.616,42.66 54.069,42.536C54.944,42.287 55.378,42.502 55.527,42.608C55.557,42.631 55.576,42.65 55.587,42.659L57.438,44.21L57.414,44.223C57.134,44.113 56.773,44.157 56.378,44.385C55.991,44.608 55.636,44.971 55.359,45.394Z" style="fill:#be7a38;"/><path d="M52.274,45.732C52.143,44.268 52.911,42.854 54.069,42.536C55.188,42.217 55.587,42.659 55.587,42.659L53.915,41.257L49.783,43.643L52.274,45.732Z" style="fill:#66503a;"/><path d="M56.378,44.385C57.267,43.872 57.99,44.288 57.99,45.315C57.99,46.342 57.267,47.593 56.378,48.106C55.49,48.62 54.768,48.203 54.768,47.176C54.768,46.149 55.49,44.898 56.378,44.385ZM56.386,44.909C55.744,45.28 55.224,46.182 55.224,46.923C55.224,47.664 55.744,47.965 56.386,47.595C57.027,47.224 57.548,46.322 57.548,45.581C57.548,44.84 57.027,44.539 56.386,44.909Z" style="fill:#8f7148;"/><path d="M56.386,44.909C57.027,44.539 57.548,44.84 57.548,45.581C57.548,46.322 57.027,47.224 56.386,47.595C55.744,47.965 55.224,47.664 55.224,46.923C55.224,46.182 55.744,45.28 56.386,44.909Z" style="fill:#49362f;"/><path d="M51.466,47.749C52.109,47.379 52.63,47.68 52.63,48.421C52.63,49.162 52.109,50.064 51.466,50.435C50.825,50.805 50.304,50.504 50.304,49.763C50.304,49.022 50.825,48.12 51.466,47.749Z" style="fill:#74352a;"/></g><g id="orange"><path d="M48.002,46.188L50.439,48.234C50.079,48.784 49.847,49.436 49.847,50.016C49.847,50.395 49.947,50.691 50.115,50.888L47.352,48.535C47.283,47.656 47.536,46.797 48.002,46.188Z" style="fill:#e3704a;"/><path d="M50.667,45.499L52.518,47.05L52.496,47.063C52.216,46.953 51.853,46.997 51.46,47.225C51.072,47.448 50.718,47.811 50.439,48.234L48.002,46.189C48.304,45.792 48.697,45.5 49.149,45.376C50.024,45.127 50.459,45.342 50.606,45.448C50.637,45.471 50.658,45.49 50.667,45.499Z" style="fill:#fca303;"/><path d="M47.354,48.572C47.225,47.108 47.993,45.694 49.149,45.376C50.27,45.058 50.667,45.499 50.667,45.499L48.996,44.097L44.865,46.483L47.354,48.572Z" style="fill:#b26528;"/><path d="M51.46,47.225C52.349,46.712 53.07,47.128 53.07,48.155C53.07,49.182 52.349,50.433 51.46,50.946C50.569,51.46 49.847,51.043 49.847,50.016C49.847,48.989 50.569,47.738 51.46,47.225ZM51.466,47.749C50.825,48.12 50.304,49.022 50.304,49.763C50.304,50.504 50.825,50.805 51.466,50.435C52.109,50.064 52.63,49.162 52.63,48.421C52.63,47.68 52.109,47.379 51.466,47.749Z" style="fill:#b26528;"/></g><g id="grey"><path d="M5.349,28.291L34.313,52.594L59.407,38.106L59.407,35.518L34.551,49.869L5.317,25.338L5.349,28.291Z" style="fill:#444;fill-rule:nonzero;"/><path d="M5.317,25.338L34.551,49.869L59.407,35.518L30.173,10.988L5.317,25.338Z" style="fill:#929191;fill-rule:nonzero;"/><path d="M27.309,15.333L30.846,18.298L30.225,18.658L26.695,15.688L27.309,15.333ZM32.744,19.89L36.33,22.896L35.698,23.263L32.119,20.251L32.744,19.89ZM38.228,24.488L41.909,27.573L41.265,27.947L37.592,24.856L38.228,24.488ZM43.807,29.165L47.416,32.191L46.762,32.571L43.159,29.54L43.807,29.165ZM49.315,33.783L52.739,36.653L52.073,37.04L48.655,34.164L49.315,33.783ZM36.965,45.812L33.522,42.915L34.182,42.534L37.631,45.426L36.965,45.812ZM31.654,41.344L28.026,38.291L28.674,37.916L32.309,40.963L31.654,41.344ZM26.158,36.719L22.458,33.607L23.095,33.239L26.801,36.346L26.158,36.719ZM20.59,32.035L16.986,29.002L17.611,28.641L21.222,31.668L20.59,32.035ZM15.117,27.43L11.561,24.439L12.176,24.083L15.738,27.07L15.117,27.43ZM22.288,18.236L25.833,21.208L25.212,21.569L21.673,18.591L22.288,18.236ZM27.723,22.793L31.317,25.806L30.685,26.173L27.098,23.155L27.723,22.793ZM33.207,27.391L36.896,30.484L36.253,30.857L32.57,27.759L33.207,27.391ZM38.786,32.069L42.404,35.102L41.749,35.482L38.138,32.444L38.786,32.069ZM44.294,36.686L47.726,39.564L47.06,39.951L43.634,37.068L44.294,36.686Z" style="fill:#d4d4d4;"/></g><g id="white"><path d="M29.263,35.141L28.953,32.272L27.72,32.976L24.51,30.266L23.293,30.968L26.524,33.674L25.304,34.379L29.263,35.141Z" style="fill:#fff;fill-rule:nonzero;"/><path d="M24.31,38.081L24,35.212L22.767,35.916L19.557,33.206L18.34,33.908L21.571,36.614L20.351,37.319L24.31,38.081Z" style="fill:#fff;fill-rule:nonzero;"/><path d="M29.068,27.692L29.378,30.561L30.611,29.857L33.821,32.567L35.038,31.865L31.807,29.159L33.027,28.454L29.068,27.692Z" style="fill:#fff;fill-rule:nonzero;"/><path d="M34.093,24.791L34.403,27.66L35.636,26.956L38.846,29.666L40.063,28.964L36.832,26.258L38.052,25.553L34.093,24.791Z" style="fill:#fff;fill-rule:nonzero;"/><path d="M39.166,21.862L39.476,24.731L40.709,24.027L43.919,26.737L45.136,26.035L41.905,23.329L43.125,22.624L39.166,21.862Z" style="fill:#fff;fill-rule:nonzero;"/></g><g id="yellow"><path d="M14.608,19.895L43.806,44.461L44.478,44.074L15.218,19.542L14.608,19.895Z" style="fill:#fbd508;fill-rule:nonzero;"/></g>  <g id="Reversed_Text" enable-background="new    ">
	<path display="inline" fill="#666666" d="M13.572,8.669L11.692,6.17h-0.939v2.499H9.354V1.673h4.697c0.5,0,0.899,0.399,0.899,0.899v2.698
		c0,0.5-0.399,0.899-0.899,0.899h-0.709l1.879,2.499H13.572z M10.753,2.922v1.999h2.799V2.922H10.753z"/>
	<path display="inline" fill="#666666" d="M20.971,6.57h-3.858c0.15,0.64,0.62,1.049,1.349,1.049c0.41,0,0.78-0.13,1.009-0.449h1.41
		c-0.38,0.97-1.31,1.599-2.349,1.599c-1.739,0-2.778-1.199-2.778-2.698s1.1-2.698,2.619-2.698
		C19.981,3.372,21.211,4.602,20.971,6.57z M17.113,5.57h2.519c-0.08-0.649-0.58-1.049-1.199-1.049
		C17.733,4.522,17.263,4.931,17.113,5.57z"/>
	<path display="inline" fill="#666666" d="M25.502,3.472h1.5l-2.199,5.197h-1.399l-2.199-5.197h1.499l1.429,3.559L25.502,3.472z"/>
	<path display="inline" fill="#666666" d="M32.421,6.57h-3.858c0.15,0.64,0.62,1.049,1.349,1.049c0.41,0,0.78-0.13,1.009-0.449h1.41
		c-0.38,0.97-1.31,1.599-2.349,1.599c-1.739,0-2.778-1.199-2.778-2.698s1.1-2.698,2.619-2.698
		C31.432,3.372,32.661,4.602,32.421,6.57z M28.563,5.57h2.519c-0.08-0.649-0.58-1.049-1.199-1.049
		C29.183,4.522,28.713,4.931,28.563,5.57z"/>
	<path display="inline" fill="#666666" d="M33.354,8.669V4.371c0-0.499,0.399-0.899,0.899-0.899h2.398v1.249h-1.898v3.948H33.354z"/>
	<path display="inline" fill="#666666" d="M37.354,8.669V7.47h2.999v-0.8h-2.1c-0.499,0-0.899-0.399-0.899-0.899V4.371c0-0.499,0.4-0.899,0.899-0.899
		h3.398v1.199h-2.898v0.8h2.099c0.5,0,0.899,0.399,0.899,0.899V7.77c0,0.5-0.399,0.899-0.899,0.899H37.354z"/>
	<path display="inline" fill="#666666" d="M47.781,6.57h-3.857c0.149,0.64,0.619,1.049,1.349,1.049c0.41,0,0.78-0.13,1.01-0.449h1.409
		c-0.38,0.97-1.31,1.599-2.349,1.599c-1.739,0-2.778-1.199-2.778-2.698s1.1-2.698,2.618-2.698
		C46.792,3.372,48.021,4.602,47.781,6.57z M43.924,5.57h2.519c-0.08-0.649-0.58-1.049-1.199-1.049
		C44.543,4.522,44.073,4.931,43.924,5.57z"/>
	<path display="inline" fill="#666666" d="M52.562,1.173h1.398v7.496h-1.398v-0.59c-0.42,0.45-1,0.689-1.659,0.689c-1.42,0-2.489-1.089-2.489-2.698
		s1.069-2.698,2.489-2.698c0.659,0,1.239,0.239,1.659,0.689V1.173z M52.562,6.07c0-0.829-0.601-1.449-1.399-1.449
		c-0.77,0-1.35,0.62-1.35,1.449c0,0.83,0.58,1.449,1.35,1.449C51.962,7.52,52.562,6.901,52.562,6.07z"/>
  </g>
</svg>